<?xml version="1.0" encoding="UTF-8" standalone="no"?><!DOCTYPE svg PUBLIC "-//W3C//DTD SVG 1.1//EN" "http://www.w3.org/Graphics/SVG/1.1/DTD/svg11.dtd"><svg width="100%" height="100%" viewBox="0 0 438 114" version="1.1" xmlns="http://www.w3.org/2000/svg" xmlns:xlink="http://www.w3.org/1999/xlink" xml:space="preserve" xmlns:serif="http://www.serif.com/" style="fill-rule:evenodd;clip-rule:evenodd;stroke-linejoin:round;stroke-miterlimit:2;"><g><path d="M113.401,57.424c0,31.155 -25.256,56.412 -56.412,56.412c-31.155,0 -56.411,-25.257 -56.411,-56.412c0,-31.155 25.256,-56.412 56.411,-56.412c31.156,0 56.412,25.257 56.412,56.412Z" style="fill:#fff;fill-rule:nonzero;"/><path d="M2.593,67.068c-0.204,0.08 -0.33,-0.124 -0.409,-0.273c-0.073,-0.159 -0.125,-0.363 -0.278,-0.465c-0.272,-0.17 -0.528,-0.307 -0.824,-0.386c1.141,7.509 3.754,14.54 7.545,20.776c0.482,0.24 0.969,0.466 1.475,0.636c-1.982,-6.554 -2.987,-13.37 -2.987,-20.288c0,-1.08 0.023,-2.147 0.073,-3.215c-0.34,-0.328 -0.754,-0.545 -1.254,-0.408c-0.308,0.08 -0.557,0.306 -0.557,0.589c0,0.308 0.328,0.49 0.454,0.762c0.051,0.158 0.131,0.306 0.154,0.466c0.073,0.558 -0.126,1.068 -0.536,1.454c-0.384,0.307 -0.941,0.476 -1.379,0.251c-0.176,-0.08 -0.301,-0.353 -0.124,-0.512c0.227,-0.228 0.664,-0.432 0.562,-0.816c-0.131,-0.434 -0.512,-0.808 -0.944,-0.967c-0.357,-0.103 -0.715,0.181 -0.869,0.488c-0.226,0.409 -0.051,0.863 0.081,1.272c0.073,0.227 0.073,0.591 -0.183,0.636Z" style="fill:#2e3092;fill-rule:nonzero;"/><path d="M26.147,72.919c-1.187,-4.294 -1.789,-8.759 -1.789,-13.257c0,-0.716 0.017,-1.443 0.046,-2.159c-0.012,-0.011 -0.022,-0.011 -0.035,-0.022c-0.539,-0.251 -1.226,0.08 -1.3,0.669c-0.052,0.376 -0.131,0.739 -0.306,1.069c-0.154,0.351 -0.433,0.635 -0.716,0.919c-0.125,0.126 -0.234,0.251 -0.381,0.353c-0.459,0.262 -0.948,0.364 -1.454,0.364c-0.124,0 -0.175,-0.137 -0.226,-0.239c-0.103,-0.17 -0.052,-0.376 0.124,-0.478c0.636,-0.329 1.199,-0.839 1.272,-1.555c0.051,-0.262 -0.051,-0.591 -0.33,-0.67c-0.226,-0.024 -0.431,-0.047 -0.635,0c-0.285,0.102 -0.534,0.284 -0.841,0.34c-0.306,0.068 -0.585,0.102 -0.891,0.023c-0.182,-0.079 -0.308,-0.205 -0.336,-0.41c-0.022,-0.124 0,-0.305 0.131,-0.363c0.329,-0.09 0.659,-0.17 0.965,-0.374c0.41,-0.284 0.665,-0.636 0.92,-1.045c0.126,-0.261 0.154,-0.511 0.103,-0.796c-0.103,-0.614 -0.664,-0.966 -1.198,-1.169c-0.291,-0.126 -0.585,-0.216 -0.903,-0.239c-0.551,3.203 -0.831,6.476 -0.831,9.768c0,4.681 0.568,9.34 1.693,13.838c0.774,3.1 1.813,6.145 3.107,9.076c0.63,-0.284 1.279,-0.5 1.926,-0.751c0.261,-0.101 0.511,-0.181 0.767,-0.261c0.613,-0.25 1.227,-0.454 1.891,-0.636c0.175,-0.045 0.38,-0.102 0.557,-0.147c0.051,0 0.124,0.023 0.182,0c0.278,-0.103 0.556,-0.182 0.863,-0.261c0.749,-0.149 1.46,-0.331 2.158,-0.534c-1.947,-3.488 -3.475,-7.203 -4.533,-11.053Z" style="fill:#2e3092;fill-rule:nonzero;"/><path d="M15.623,87.618c0.891,0 1.756,-0.101 2.652,-0.227c0.864,-0.103 1.659,-0.284 2.551,-0.431c0.011,0 0.034,-0.013 0.05,-0.013c-1.284,-2.94 -2.317,-5.997 -3.094,-9.109c-1.153,-4.612 -1.738,-9.384 -1.738,-14.19c0,-3.145 0.249,-6.258 0.738,-9.315c-0.398,0.354 -0.545,0.864 -0.625,1.364c-0.023,0.262 -0.229,0.534 -0.482,0.465c-0.893,-0.305 -1.047,-1.283 -1.478,-1.987c-0.154,-0.285 -0.562,-0.408 -0.869,-0.204c-0.227,0.17 -0.257,0.432 -0.175,0.658c0.198,0.455 0.152,0.965 -0.03,1.431c-0.052,0.171 -0.254,0.228 -0.459,0.228c-0.126,0 -0.205,-0.126 -0.308,-0.204c-0.174,-0.182 -0.147,-0.534 -0.431,-0.592c-0.175,-0.045 -0.386,-0.022 -0.51,0.081c-0.256,0.25 -0.126,0.658 0.027,0.965c0.257,0.466 0.689,0.692 1.148,0.965c0.403,0.262 0.46,0.773 0.659,1.204c0.028,0.045 0.102,0.103 0.154,0.126c0.356,0.158 0.743,0.227 1.072,0.488c0.228,0.204 0.433,0.409 0.563,0.659c0.277,0.636 0.277,1.328 0.074,1.988c-0.022,0.102 -0.153,0.204 -0.255,0.26c-0.126,0.047 -0.28,-0.034 -0.331,-0.158c-0.051,-0.204 -0.051,-0.375 -0.079,-0.579c0,-0.136 -0.074,-0.283 -0.175,-0.386c-0.126,-0.103 -0.308,-0.103 -0.432,0c-0.489,0.408 -0.029,1.022 -0.05,1.533c0,0.308 -0.411,0.329 -0.637,0.25c-0.797,-0.25 -1.352,-0.887 -2.199,-1.091c-0.073,-0.034 -0.2,0.024 -0.2,0.125c0,0.306 0.025,0.613 -0.026,0.943c-0.052,0.249 -0.182,0.433 -0.307,0.66c-0.155,0.26 -0.563,0.362 -0.739,0.123c-0.103,-0.1 0,-0.306 -0.131,-0.432c-0.102,-0.068 -0.226,-0.147 -0.352,-0.123c-0.103,0.021 -0.182,0.123 -0.233,0.205c-0.103,0.227 -0.165,0.465 -0.256,0.692c-0.045,1.022 -0.068,2.045 -0.068,3.078c0,7.01 1.053,13.904 3.136,20.515c0.068,0.012 0.13,0.012 0.199,0.012c0.482,0.023 0.943,0.023 1.426,0.023l2.22,0Z" style="fill:#2e3092;fill-rule:nonzero;"/><path d="M28.215,96.012c-0.136,0.217 -0.25,0.455 -0.402,0.636c0.169,0.239 0.335,0.479 0.51,0.716c0.011,-0.011 0.028,-0.021 0.045,-0.034c0.461,-0.25 1.097,-0.51 1.074,-1.068c-0.028,-0.182 -0.205,-0.305 -0.359,-0.431c-0.277,-0.182 -0.663,-0.079 -0.868,0.181Z" style="fill:#2e3092;fill-rule:nonzero;"/><path d="M30.612,32.83c-0.024,-0.158 -0.075,-0.305 -0.198,-0.431c-0.336,-0.284 -0.745,-0.387 -1.154,-0.284c-0.762,0.182 -1.146,0.899 -1.249,1.635c-0.098,0.683 0.152,1.319 0.305,2.013c0.131,0.509 0.359,0.919 0.689,1.351c0.022,0.033 0.068,0.078 0.113,0.112c0.517,-0.975 1.08,-1.93 1.686,-2.85c-0.011,-0.01 -0.028,-0.023 -0.038,-0.045c-0.102,-0.047 -0.205,-0.147 -0.205,-0.272c0,-0.411 0.103,-0.819 0.051,-1.229Z" style="fill:#2e3092;fill-rule:nonzero;"/><path d="M31.992,31.15c-0.05,0.045 -0.101,0.102 -0.131,0.171c-0.187,0.647 -0.204,1.284 -0.295,1.943c0.541,-0.752 1.102,-1.478 1.698,-2.183c-0.415,-0.204 -0.874,-0.181 -1.272,0.069Z" style="fill:#2e3092;fill-rule:nonzero;"/><path d="M33.469,82.926c0.766,-0.329 1.454,-0.739 2.141,-1.273c0.715,-0.533 1.301,-1.102 1.834,-1.806c0.131,-0.181 0.256,-0.363 0.381,-0.544c0.211,-0.352 0.513,-0.534 0.744,-0.863c0.007,-0.012 0.012,-0.024 0.024,-0.024c-1.471,-2.294 -2.71,-4.737 -3.71,-7.293c-1.891,-4.838 -2.851,-9.939 -2.851,-15.176c0,-0.295 0.006,-0.602 0.011,-0.897c-0.221,-0.024 -0.437,-0.091 -0.637,-0.216c-0.13,-0.102 -0.283,-0.284 -0.181,-0.431c0.102,-0.228 0.41,-0.205 0.615,-0.364c0.089,-0.057 0.168,-0.114 0.243,-0.183c0.024,-0.499 0.062,-0.999 0.103,-1.498c-0.359,-0.421 -0.886,-0.524 -1.369,-0.818c-0.153,-0.103 -0.256,-0.329 -0.432,-0.329c-0.051,0 -0.153,-0.023 -0.205,0.056c-0.256,0.431 -0.153,0.909 -0.278,1.375c-0.081,0.25 -0.233,0.488 -0.511,0.534c-0.51,0.078 -0.791,-0.387 -1.119,-0.693c-0.359,-0.33 -0.92,-0.272 -1.278,0c-0.279,0.261 -0.46,0.669 -0.335,1.021c0.182,0.434 0.386,0.899 0.306,1.375c-0.404,0.602 -0.687,1.25 -1.062,1.864c-0.057,0.965 -0.092,1.941 -0.092,2.919c0,4.372 0.586,8.701 1.735,12.871c1.05,3.828 2.577,7.509 4.537,10.961c0.459,-0.171 0.92,-0.363 1.386,-0.568Z" style="fill:#2e3092;fill-rule:nonzero;"/><path d="M36.757,26.401c0.41,0.045 0.796,0.069 1.187,0.092c0.807,-0.66 1.648,-1.273 2.505,-1.853c-1.072,-0.238 -2.192,-0.284 -3.255,0.081c-0.335,0.124 -0.589,0.329 -0.794,0.636c-0.177,0.26 -0.102,0.568 0.028,0.818c0.074,0.124 0.205,0.226 0.329,0.226Z" style="fill:#2e3092;fill-rule:nonzero;"/><path d="M30.18,38.443c0.256,0.227 0.484,0.432 0.791,0.612c0.869,0.535 1.811,0.966 2.833,0.74c0.461,-0.126 0.897,-0.273 1.347,-0.353c1.76,-4.111 4.52,-7.816 7.962,-10.815c-0.01,-0.022 -0.023,-0.033 -0.033,-0.056c-0.33,-0.817 -0.097,-1.681 -0.155,-2.545c-0.022,-0.307 -0.226,-0.635 -0.504,-0.738c-0.119,-0.057 -0.235,-0.101 -0.352,-0.146c-0.852,0.533 -1.676,1.101 -2.472,1.703c0.097,0.08 0.177,0.158 0.245,0.272c0.182,0.364 -0.126,0.818 -0.512,0.875c-0.453,0.023 -0.942,0.09 -1.271,0.431c-0.205,0.204 -0.382,0.501 -0.177,0.705c0.177,0.205 0.307,0.442 0.456,0.613c0.18,0.205 0.283,0.431 0.355,0.693c0.03,0.125 0.081,0.228 0.081,0.329c-0.029,0.126 -0.051,0.261 -0.153,0.33c-0.153,0.126 -0.359,0.126 -0.534,0.033c-0.233,-0.136 -0.335,-0.407 -0.54,-0.589c-0.205,-0.126 -0.353,-0.284 -0.562,-0.41c-0.103,-0.079 -0.228,-0.102 -0.331,-0.124c-0.3,-0.024 -0.589,0.056 -0.845,0.204c-0.192,0.194 -0.38,0.399 -0.568,0.602c-0.193,0.454 -0.062,0.967 -0.062,1.432c0,0.328 -0.08,0.818 -0.432,0.92c-0.307,0.103 -0.512,-0.25 -0.59,-0.512c-0.035,-0.159 -0.069,-0.319 -0.109,-0.477c-1.556,1.887 -2.902,3.931 -4.021,6.123c0.045,0.046 0.103,0.09 0.153,0.148Z" style="fill:#2e3092;fill-rule:nonzero;"/><path d="M1.474,48.838c0.841,-0.455 1.58,-0.965 2.369,-1.546c0.738,-0.568 1.374,-1.102 2.091,-1.693c0.97,-0.806 1.731,-1.681 2.522,-2.646c0.459,-0.512 0.869,-0.965 1.276,-1.556c0.075,-0.126 0.155,-0.284 0.229,-0.41c0.233,-0.305 0.487,-0.511 0.715,-0.818c0.92,-1.273 1.834,-2.317 2.83,-3.464c0.322,-0.364 0.589,-0.716 0.89,-1.125c1.05,-1.318 2.169,-2.397 3.215,-3.715c0.789,-0.999 1.556,-1.817 2.295,-2.829c0.028,-0.055 0.101,-0.055 0.131,-0.078c0.635,-0.796 1.221,-1.477 1.857,-2.273c0.818,-1.043 1.635,-1.943 2.475,-2.952c1.12,-1.352 2.29,-2.454 3.516,-3.682c0.688,-0.637 1.375,-1.214 2.068,-1.829c-0.029,-0.022 -0.051,-0.079 -0.029,-0.101c0.029,-0.023 0.051,0.022 0.075,0.022c0.972,-0.715 1.714,-1.476 2.731,-2.091c0.228,-0.124 0.43,-0.226 0.665,-0.328c0.255,-0.16 0.505,-0.329 0.762,-0.49c0.181,-0.067 0.334,-0.147 0.51,-0.225c1.25,-0.74 2.5,-1.273 3.773,-1.944c0.561,-0.273 1.101,-0.534 1.686,-0.738c0.636,-0.205 1.242,-0.432 1.886,-0.637c0.811,-0.249 1.579,-0.477 2.419,-0.658c1.381,-0.307 2.654,-0.409 4.033,-0.557c0.353,-0.034 0.709,0.069 1.068,0.092c0.409,0.033 0.789,0.033 1.198,0.079c0.511,0.057 0.971,0.124 1.483,0.261c0.835,0.228 1.578,0.557 2.34,0.92c0.203,0.102 0.436,0.148 0.664,0.148c0.586,0.046 1.126,0.079 1.71,0.181c0.658,0.103 1.271,0.274 1.958,0.433c0.921,0.203 1.738,0.534 2.552,1.044c0.283,0.181 0.431,0.454 0.715,0.636c0.154,0.08 0.329,0.103 0.511,0.08c0.382,-0.08 0.738,-0.125 1.119,-0.103c0.768,0.047 1.402,0.353 2.068,0.784c0.254,0.16 0.534,0.057 0.789,0.102c0.102,0.035 0.177,0.058 0.255,0.102c0.205,0.205 0.432,0.308 0.664,0.466c0.201,0.147 0.228,0.432 0.075,0.636c-0.329,0.375 -0.716,-0.021 -1.067,-0.079c-0.233,-0.057 -0.513,0.058 -0.636,0.261c-0.308,0.534 -0.183,1.136 0.123,1.648c0.177,0.283 0.433,0.546 0.79,0.59c0.331,0.023 0.664,-0.124 1.017,-0.044c0.183,0.044 0.306,0.125 0.46,0.194c0.336,0.202 0.541,0.508 0.767,0.817c0.126,0.203 0.175,0.407 0.175,0.636c0,0.387 -0.049,0.794 -0.226,1.147c-0.024,0.102 -0.124,0.205 -0.285,0.181c-0.095,-0.023 -0.198,-0.079 -0.249,-0.181c-0.051,-0.171 -0.079,-0.353 -0.102,-0.534c-0.052,-0.172 -0.153,-0.329 -0.257,-0.478c-0.226,-0.284 -0.612,-0.158 -0.919,-0.182c-0.152,0 -0.278,0.126 -0.25,0.284c0.023,0.456 0.2,0.886 0.177,1.342c-0.024,0.136 0,0.283 -0.079,0.408c-0.075,0.238 -0.433,0.261 -0.586,0.035c-0.176,-0.307 -0.153,-0.694 -0.433,-0.899c-0.254,-0.226 -0.743,-0.021 -0.817,0.331c-0.052,0.261 -0.052,0.487 0.028,0.737c0.074,0.307 0.307,0.568 0.586,0.694c0.891,0.431 1.857,0.636 2.754,1.146c0.257,0.126 0.558,0.161 0.842,0.046c0.38,-0.125 0.761,-0.249 1.147,-0.398c0.255,-0.101 0.459,-0.305 0.738,-0.408c0.46,-0.16 0.942,-0.26 1.454,-0.204c0.306,0.044 0.585,0.147 0.89,0.204c0.359,0.045 0.688,0.023 1.024,0.124c0.25,0.102 0.454,0.284 0.71,0.386c0.124,0.024 0.227,0 0.357,-0.034c0.307,-0.125 0.585,-0.169 0.921,-0.226c0.403,-0.045 0.789,0.158 1.17,0.204c0.385,0.056 0.766,0.056 1.147,0.103c0.104,0.022 0.234,0.056 0.336,0.124c0.43,0.284 0.658,0.739 1.118,0.944c0.155,0.055 0.307,0.237 0.204,0.431c-0.073,0.137 -0.204,0.239 -0.329,0.181c-0.49,-0.101 -0.869,-0.352 -1.307,-0.557c-0.199,-0.102 -0.352,-0.305 -0.606,-0.26c-0.336,0.103 -0.716,0.26 -0.791,0.636c-0.027,0.239 0.075,0.466 0.023,0.693c-0.08,0.262 -0.204,0.533 -0.454,0.533c-0.284,0 -0.335,-0.35 -0.511,-0.533c-0.159,-0.148 -0.409,-0.148 -0.642,-0.148c-0.228,0.023 -0.455,0.25 -0.409,0.477c0.13,0.74 0.766,1.307 1.403,1.613c0.335,0.147 0.665,0 1.022,0.068c0.308,0.058 0.636,0 0.841,-0.227c0.306,-0.408 0.768,-0.579 1.226,-0.738c0.301,-0.079 0.608,-0.079 0.916,-0.102c0.181,0 0.386,-0.024 0.562,0.057c0.738,0.25 1.374,0.783 1.658,1.499c0.073,0.205 0.022,0.431 0.051,0.636c0.022,0.103 0.074,0.227 0.154,0.261c0.483,0.204 1.301,0.328 1.221,1.012c-0.051,0.306 -0.382,0.339 -0.636,0.26c-0.511,-0.181 -1.046,-0.385 -1.608,-0.284c-0.33,0.08 -0.635,0.182 -0.971,0.284c-0.096,0.353 -0.045,0.717 -0.277,1.047c-0.104,0.124 -0.229,0.25 -0.403,0.203c-0.234,-0.079 -0.314,-0.329 -0.314,-0.568c-0.023,-0.148 -0.353,0 -0.432,0.102c-0.176,0.181 0,0.489 -0.021,0.738c0,0.08 0.049,0.137 0.1,0.182c0.177,0.126 0.353,0.205 0.485,0.386c0.225,0.33 0.277,0.761 0.182,1.171c-0.133,0.431 -0.542,0.715 -0.695,1.125c-0.051,0.102 -0.051,0.227 0.028,0.306c0.256,0.149 0.534,0.024 0.79,-0.056c0.176,-0.045 0.358,-0.023 0.533,0c0.411,0.056 0.767,0.034 1.177,0.136c0.709,0.147 1.324,0.397 1.96,0.805c0.102,0.081 0.203,0.161 0.278,0.285c0.051,0.125 0.079,0.283 0.051,0.409c-0.075,0.205 -0.25,0.455 -0.483,0.353c-0.511,-0.229 -0.92,-0.705 -1.506,-0.784c-0.277,-0.023 -0.584,0 -0.812,0.171c-0.203,0.158 -0.254,0.408 -0.284,0.647c0,0.226 0.081,0.454 0.051,0.704c-0.021,0.137 -0.1,0.261 -0.148,0.387c-0.102,0.158 -0.209,0.284 -0.356,0.384c-0.181,0.103 -0.387,0.126 -0.564,0.126c-0.13,0.024 -0.254,-0.079 -0.254,-0.204c-0.029,-0.206 0.028,-0.387 -0.029,-0.59c-0.051,-0.171 -0.227,-0.228 -0.353,-0.353c-0.254,-0.204 -0.641,-0.057 -0.766,0.203c-0.154,0.331 -0.205,0.74 -0.073,1.091c0.096,0.263 0.3,0.466 0.483,0.671c0.175,0.148 0.43,0.126 0.635,0.126c0.46,0 0.972,-0.047 1.404,0.147c0.204,0.114 0.328,0.318 0.533,0.466c0.181,0.181 0.154,0.488 -0.051,0.613c-0.154,0.102 -0.329,0.079 -0.461,-0.022c-0.072,-0.081 -0.124,-0.16 -0.203,-0.205c-0.25,-0.182 -0.506,-0.136 -0.79,-0.103c-0.358,0.024 -0.711,0.125 -1.047,0.251c-0.05,0.023 -0.02,0.124 -0.02,0.181c0.123,0.41 0.02,0.841 -0.257,1.125c-0.102,0.124 -0.431,0.124 -0.51,-0.057c-0.205,-0.489 -0.615,-0.818 -0.995,-1.147c-0.123,-0.102 -0.357,-0.182 -0.489,-0.079c-0.096,0.135 -0.096,0.362 -0.25,0.408c-0.283,0.126 -0.459,-0.147 -0.533,-0.374c-0.102,-0.308 -0.233,-0.694 -0.028,-0.978c0.153,-0.181 0.329,-0.329 0.38,-0.534c0.108,-0.283 0.057,-0.578 -0.074,-0.84c-0.124,-0.285 -0.254,-0.59 -0.539,-0.761c-0.177,-0.102 -0.403,-0.365 -0.558,-0.161c-0.175,0.205 -0.334,0.387 -0.533,0.513c-0.175,0.124 -0.488,0 -0.534,-0.181c-0.103,-0.353 -0.103,-0.705 -0.261,-1.046c-0.177,-0.33 -0.381,-0.602 -0.658,-0.863c-0.103,-0.08 -0.206,-0.102 -0.309,-0.023c-0.13,0.102 -0.175,0.249 -0.254,0.386c-0.154,0.17 -0.358,0.25 -0.585,0.25c-0.081,0 -0.103,-0.08 -0.103,-0.124c-0.101,-0.228 -0.101,-0.468 -0.153,-0.694c-0.051,-0.329 -0.335,-0.534 -0.562,-0.76c-0.204,-0.183 -0.461,-0.331 -0.738,-0.365c-0.279,-0.022 -0.564,0 -0.841,0.058c-0.535,0.146 -0.739,0.68 -0.79,1.17c-0.08,0.557 0.358,0.999 0.585,1.454c0.256,0.488 0.307,0.999 0.177,1.532c-0.075,0.25 -0.204,0.478 -0.455,0.558c-0.13,0 -0.307,0.056 -0.336,-0.08c-0.123,-0.785 -0.942,-1.453 -1.703,-1.216c-0.459,0.147 -0.591,0.683 -0.943,1.012c-0.233,0.204 -0.619,0.204 -0.795,-0.024c-0.102,-0.101 -0.023,-0.284 0,-0.407c0.131,-0.353 0.307,-0.718 0.335,-1.091c0.052,-0.41 -0.051,-0.819 -0.256,-1.205c-0.028,-0.045 -0.079,-0.068 -0.13,-0.068c-0.359,0.023 -0.739,0.068 -1.095,-0.035c-0.28,-0.067 -0.28,-0.43 -0.229,-0.659c0,-0.101 0.075,-0.181 0.154,-0.261c0.102,-0.123 0.125,-0.294 0.125,-0.454c-0.023,-0.124 -0.102,-0.226 -0.177,-0.329c-0.255,-0.283 -0.482,-0.534 -0.817,-0.739c-0.483,-0.26 -1.119,-0.056 -1.478,0.329c-0.431,0.534 -0.561,1.193 -1.146,1.58c-0.131,0.103 -0.358,0.079 -0.408,-0.08c-0.103,-0.307 0.152,-0.601 0.254,-0.885c0.075,-0.205 0.126,-0.465 0.051,-0.694c-0.124,-0.373 -0.153,-0.749 -0.25,-1.158c-0.062,0.046 -0.124,0.079 -0.187,0.125c-1.709,1.125 -3.21,2.51 -4.458,4.101c-2.59,3.306 -3.959,7.35 -3.959,11.688c0,4.193 1.34,8.236 3.805,11.577c0.886,0.259 1.805,0.407 2.726,0.339c0.54,-0.022 1.074,-0.182 1.636,-0.125c0.228,0 0.409,0.125 0.557,0.33c0.154,0.227 0.283,0.409 0.386,0.636c0.278,0.489 0.154,1.023 0.051,1.556c-0.102,0.387 -0.204,0.761 -0.256,1.146c-0.039,0.501 -0.153,0.978 -0.204,1.468c1.38,1.113 2.88,2.009 4.511,2.714c1.459,0.625 3.043,1.09 4.759,1.409c0.103,-0.069 0.21,-0.148 0.318,-0.216c0.204,-0.148 0.352,-0.308 0.534,-0.455c0.561,-0.431 1.147,-0.76 1.71,-1.194c0.607,-0.51 1.147,-0.999 1.681,-1.588c0.51,-0.557 0.993,-1.069 1.476,-1.648c0.358,-0.49 0.716,-0.898 1.022,-1.41c0.154,-0.226 0.331,-0.407 0.512,-0.589c0.136,-0.137 0.278,-0.273 0.409,-0.431c0.533,-0.842 0.967,-1.625 1.732,-2.261c0.306,-0.284 0.688,-0.489 1.096,-0.444c0.177,0 0.381,0.137 0.557,0.137c0.613,0 1.225,-0.206 1.863,-0.137c0.335,0.058 0.665,0.16 0.995,0.262c0.431,0.147 0.868,0.226 1.277,0.453c0.33,0.205 0.659,0.41 0.915,0.739c0.437,0.591 0.845,1.102 1.249,1.716c0.561,0.84 0.943,1.623 1.528,2.442c0.21,0.286 0.385,0.511 0.642,0.738c0.204,0.16 0.352,0.308 0.533,0.489c0.767,0.886 1.608,1.579 2.477,2.375c0.096,0.078 0.193,0.17 0.29,0.249c3.282,-1.17 6.395,-2.761 9.274,-4.76c3.306,-2.282 6.242,-5.055 8.725,-8.224c0.749,-0.954 1.459,-1.954 2.118,-2.977c-1.863,-29.545 -26.411,-52.935 -56.423,-52.935c-28.389,0 -51.89,20.924 -55.93,48.188c0.138,-0.069 0.273,-0.148 0.415,-0.226Z" style="fill:#2e3092;fill-rule:nonzero;"/><path d="M104.728,84.972c-0.126,0.021 -0.256,0 -0.382,-0.08c-0.788,-0.512 -1.425,-1.045 -2.142,-1.637c-0.18,-0.103 -0.328,-0.203 -0.482,-0.329c-1.016,-0.874 -1.964,-1.68 -3.028,-2.498c-1.406,0.432 -2.832,0.783 -4.28,1.078c0.119,0.192 0.238,0.398 0.37,0.602c0.64,0.999 1.305,1.841 2.146,2.659c1.248,1.227 2.521,2.113 4.004,3.134c0.886,0.615 1.653,1.136 2.526,1.716c1.46,-2.1 2.784,-4.306 3.955,-6.6c-0.148,-0.101 -0.279,-0.215 -0.415,-0.317c-0.513,-0.386 -1.045,-0.637 -1.484,-1.069c-0.504,-0.59 -1.067,-1.045 -1.652,-1.555c-0.439,-0.331 -0.897,-0.534 -1.352,-0.796c-0.073,-0.034 -0.147,-0.069 -0.227,-0.103c-0.347,0.136 -0.693,0.274 -1.039,0.399c-0.006,0.011 -0.006,0.021 -0.006,0.021c-0.028,0.274 0.074,0.581 0.331,0.729c0.633,0.385 1.271,0.568 1.936,0.818c0.073,0.054 0.175,0.102 0.152,0.204c-0.028,0.079 -0.079,0.124 -0.152,0.158c-0.279,0.024 -0.586,0.024 -0.869,0.024c-0.102,0.021 -0.205,0.101 -0.205,0.203c0.028,0.33 0.154,0.636 0.357,0.909c0.615,0.716 1.222,1.352 1.938,1.999c0.079,0.068 0.131,0.273 0,0.331Z" style="fill:#2e3092;fill-rule:nonzero;"/><path d="M108.424,79.745c-0.203,-0.055 -0.38,-0.182 -0.584,-0.203c-0.227,-0.035 -0.488,-0.081 -0.716,-0.058c-0.329,0.023 -0.403,0.387 -0.38,0.637c0.023,0.205 0.102,0.408 0.176,0.59c0.102,0.183 0.204,0.353 0.334,0.535c0.177,0.226 0.382,0.407 0.586,0.612c0.034,0.035 0.067,0.058 0.108,0.092c0.318,-0.659 0.619,-1.329 0.909,-2.011c-0.142,-0.057 -0.279,-0.137 -0.433,-0.194Z" style="fill:#2e3092;fill-rule:nonzero;"/><path d="M47.67,23.493c-0.967,-0.17 -2.296,0 -2.501,1.126c0.154,0.363 0.359,0.715 0.716,0.873c0.33,0.125 0.705,0.17 1.012,0.307c1.413,-0.897 2.901,-1.693 4.451,-2.351c-0.312,-0.318 -0.528,-0.704 -0.749,-1.102c-0.096,-0.227 0,-0.477 -0.022,-0.738c0,-0.102 -0.074,-0.228 -0.177,-0.25c-0.54,-0.023 -1.074,0.103 -1.583,-0.057c-0.046,-0.022 -0.126,0.034 -0.178,0.034c-0.306,-0.079 -0.686,-0.056 -0.789,0.249c-0.08,0.161 0.022,0.331 0.125,0.433c0.255,0.329 0.511,0.67 0.437,1.079c-0.051,0.352 -0.409,0.455 -0.742,0.397Z" style="fill:#2e3092;fill-rule:nonzero;"/><path d="M108.574,76.134c-0.712,0.419 -1.438,0.805 -2.165,1.181c0.21,0.034 0.427,0.056 0.642,0.079c0.835,0.342 1.664,0.557 2.476,0.954c0.471,-1.18 0.898,-2.385 1.295,-3.602c-0.739,0.479 -1.488,0.944 -2.248,1.388Z" style="fill:#2e3092;fill-rule:nonzero;"/><path d="M79.436,79.894c-0.25,0.056 -0.432,0.284 -0.687,0.432c-0.176,0.124 -0.308,0.329 -0.38,0.568c-0.03,0.123 -0.064,0.237 -0.097,0.352c0.641,0.09 1.335,0.147 2.112,0.181c-0.028,-0.239 -0.073,-0.465 -0.131,-0.716c-0.074,-0.408 -0.328,-0.919 -0.817,-0.817Z" style="fill:#2e3092;fill-rule:nonzero;"/><path d="M76.454,78.44c-0.073,-0.25 -0.256,-0.557 -0.534,-0.455c-0.562,0.205 -1.17,0.818 -0.92,1.476c0.08,0.184 0.181,0.331 0.232,0.512c0.08,0.227 0.147,0.455 0.205,0.693c0.506,0.136 1.022,0.272 1.573,0.375c-0.027,-0.216 -0.061,-0.431 -0.096,-0.66c-0.023,-0.363 -0.204,-0.636 -0.409,-0.942c-0.051,-0.102 -0.073,-0.238 -0.103,-0.364c-0.051,-0.227 0.103,-0.409 0.052,-0.635Z" style="fill:#2e3092;fill-rule:nonzero;"/><path d="M72.245,87.004c-0.278,-0.204 -0.659,-0.147 -0.835,0.103c-0.233,0.284 -0.261,0.635 -0.54,0.875c-0.306,0.272 -0.688,0.148 -1.044,0.25c-0.228,0.045 -0.359,0.181 -0.41,0.408c-0.022,0.102 0,0.204 0.051,0.285c0.047,0.159 0.097,0.295 0.153,0.431c4.028,1.272 8.168,2.068 12.371,2.386c2.505,0.193 5.01,0.203 7.504,0.055c-0.261,-0.988 -0.438,-1.987 -0.778,-2.953c-0.2,-0.567 -0.46,-1.066 -0.841,-1.556c-0.329,-0.408 -0.687,-0.76 -1.023,-1.17c-0.074,-0.08 -0.175,-0.102 -0.277,-0.08c-0.331,0.08 -0.352,0.49 -0.28,0.762c0.103,0.307 0.205,0.591 0.28,0.875c0.203,0.636 0.181,1.272 0.232,1.908c0.023,0.183 0.023,0.387 -0.102,0.534c-0.153,0.102 -0.307,0 -0.41,-0.126c-0.305,-0.51 -0.226,-1.066 -0.561,-1.578c-0.46,-0.738 -0.965,-1.385 -1.602,-1.988c-0.181,-0.159 -0.437,-0.126 -0.642,-0.262c-0.205,-0.147 -0.227,-0.453 -0.073,-0.578c0.408,-0.363 0.556,-0.944 0.278,-1.431c-0.205,-0.365 -0.613,-0.716 -1.017,-0.513c-0.409,0.206 -0.693,0.592 -1.101,0.865c-0.331,0.203 -0.711,0.079 -0.989,-0.149c-0.108,-0.101 -0.108,-0.284 0,-0.385c0.226,-0.25 0.329,-0.58 0.249,-0.886c-0.027,-0.092 -0.057,-0.17 -0.091,-0.25c-2.174,-0.068 -3.777,-0.33 -5.242,-0.704c-0.092,0.387 -0.301,0.76 -0.659,0.954c-0.175,0.1 -0.534,0.021 -0.534,-0.239c-0.017,-0.363 -0.039,-0.772 -0.187,-1.126c-0.454,-0.146 -0.908,-0.306 -1.374,-0.465c-0.074,0.045 -0.137,0.114 -0.194,0.193c-0.101,0.126 -0.051,0.249 -0.051,0.387c0,0.375 0.051,0.761 0.279,1.114c0.181,0.261 0.404,0.442 0.613,0.67c0.051,0.068 0.074,0.147 0.102,0.227c0.075,0.328 0.045,0.659 0.097,0.999c0.078,0.557 0.262,1.045 0.307,1.601c0.028,0.307 -0.023,0.615 -0.205,0.865c-0.227,0.386 -0.403,0.739 -0.608,1.146c-0.079,0.126 -0.152,0.262 -0.306,0.262c-0.307,-0.023 -0.54,-0.307 -0.432,-0.59c0.153,-0.388 0.25,-0.842 -0.108,-1.126Z" style="fill:#2e3092;fill-rule:nonzero;"/><path d="M90.607,90.504c-0.028,0.397 -0.011,0.806 0.006,1.204c0.444,-0.035 0.887,-0.069 1.323,-0.114c-0.176,-0.317 -0.34,-0.614 -0.59,-0.864c-0.182,-0.158 -0.335,-0.386 -0.59,-0.386c-0.074,0 -0.149,0.08 -0.149,0.16Z" style="fill:#2e3092;fill-rule:nonzero;"/><path d="M95.629,76.1c-0.585,-1.001 -1.074,-1.943 -1.711,-2.931c-0.396,-0.613 -0.793,-1.136 -1.203,-1.681c-0.199,0.057 -0.403,0.124 -0.607,0.192c-0.654,0.193 -1.307,0.387 -1.971,0.545c0.051,0.16 0.101,0.318 0.165,0.479c0.454,1.556 1.146,2.951 1.704,4.486c0.256,0.714 0.562,1.374 0.948,2.045c0.209,0.352 0.397,0.671 0.613,0.999c1.33,-0.25 2.648,-0.568 3.947,-0.931c-0.312,-0.386 -0.579,-0.807 -0.869,-1.238c-0.408,-0.671 -0.636,-1.307 -1.016,-1.965Z" style="fill:#2e3092;fill-rule:nonzero;"/><path d="M89.762,70.851c0.647,-0.169 1.289,-0.351 1.925,-0.545c0.051,-0.012 0.096,-0.035 0.148,-0.046c-0.182,-0.239 -0.359,-0.431 -0.54,-0.693c-0.204,-0.306 -0.357,-0.556 -0.562,-0.84c-0.511,-0.615 -0.971,-1.192 -1.505,-1.783c-0.176,-0.183 -0.432,-0.308 -0.665,-0.308c-0.153,0 -0.095,0.228 -0.074,0.364c0.329,1.17 0.767,2.238 1.119,3.384c0.057,0.161 0.108,0.307 0.154,0.467Z" style="fill:#2e3092;fill-rule:nonzero;"/><path d="M68.093,98.739c0.022,-0.103 0.05,-0.226 0.022,-0.342c-0.022,-0.09 -0.044,-0.192 -0.123,-0.294c-0.103,-0.103 -0.178,-0.261 -0.331,-0.284c-0.335,-0.023 -0.845,-0.057 -0.92,0.353c-0.056,0.238 -0.029,0.476 0.006,0.715c0.397,0.136 0.789,0.262 1.193,0.386c0.062,-0.182 0.12,-0.352 0.153,-0.534Z" style="fill:#2e3092;fill-rule:nonzero;"/><path d="M82.371,29.469c-0.027,-0.239 -0.101,-0.467 -0.283,-0.591c-0.205,-0.205 -0.613,-0.182 -0.709,0.158c-0.047,0.126 -0.103,0.331 0.021,0.352c0.308,0.081 0.666,0.206 0.971,0.081Z" style="fill:#2e3092;fill-rule:nonzero;"/><path d="M65.208,70.329c-1.409,-0.602 -2.727,-1.352 -3.959,-2.237c0.027,0.237 0.051,0.475 0.113,0.738c0.41,1.704 0.716,3.316 1.659,4.838c0.353,0.613 0.79,1.205 1.478,1.488c0.227,0.069 0.431,-0.034 0.636,-0.16c0.226,-0.181 0.384,-0.373 0.612,-0.555c0.664,-0.489 1.199,-0.943 1.811,-1.477c0.228,-0.205 0.485,-0.33 0.711,-0.545c0.313,-0.273 0.613,-0.546 0.914,-0.818c-1.407,-0.318 -2.731,-0.738 -3.975,-1.272Z" style="fill:#2e3092;fill-rule:nonzero;"/><path d="M44.232,98.626c3.363,2.895 7.055,5.395 10.979,7.44c3.993,2.078 8.231,3.668 12.597,4.749c1.575,0.397 3.165,0.716 4.772,0.965c5.936,-1.704 11.474,-4.351 16.443,-7.77c-7.678,-0.08 -15.426,-1.33 -22.498,-3.669c-0.301,0.397 -0.664,0.727 -1.006,1.067c-0.233,0.262 -0.561,0.262 -0.868,0.081c-0.101,-0.081 -0.101,-0.228 -0.052,-0.307c0.28,-0.455 0.177,-1.171 -0.38,-1.273c-0.335,-0.057 -0.665,0.079 -0.948,0.284c-0.176,0.148 -0.278,0.33 -0.455,0.477c-0.102,0.081 -0.181,0.136 -0.305,0.159c-0.103,0.023 -0.184,-0.057 -0.257,-0.078c-0.154,-0.047 -0.228,-0.228 -0.176,-0.387c0.102,-0.376 0.33,-0.705 0.249,-1.114c-0.096,-0.488 -0.533,-0.795 -0.965,-0.874c-0.386,-0.046 -0.767,0.182 -0.971,0.511c-0.175,0.283 -0.096,0.591 -0.278,0.874c-0.256,0.33 -0.591,0.558 -0.971,0.637c-0.535,0.068 -0.893,0.475 -1.273,0.807c-0.051,0.056 -0.124,0.056 -0.176,0.079c-0.46,0.103 -0.868,0.124 -1.33,0.182c-0.204,0.023 -0.38,-0.161 -0.459,-0.363c-0.023,-0.126 0.028,-0.274 0.154,-0.352c0.335,-0.182 0.716,-0.182 0.97,-0.489c0.256,-0.33 0.615,-0.784 0.28,-1.147c-0.206,-0.274 -0.456,-0.501 -0.381,-0.886c0.073,-0.387 0.381,-0.637 0.381,-1.024c-0.024,-0.283 -0.206,-0.512 -0.432,-0.658c-0.132,-0.103 -0.335,-0.08 -0.513,-0.057c-0.153,0.035 -0.253,0.182 -0.38,0.227c-0.283,0.103 -0.562,0.058 -0.841,0.034c-0.13,-0.034 -0.232,-0.136 -0.335,-0.204c-0.203,-0.159 -0.102,-0.467 0.081,-0.511c0.306,-0.079 0.596,-0.274 0.743,-0.524c-1.845,-1.066 -3.555,-2.213 -5.104,-3.43c-1.075,-0.84 -2.069,-1.715 -2.99,-2.611c-0.011,0.01 -0.016,0.021 -0.016,0.033c-0.204,0.33 -0.387,0.669 -0.744,0.819c-0.177,0.055 -0.381,0.123 -0.562,0.078c-0.28,-0.103 -0.251,-0.488 -0.051,-0.635c-0.023,0 -0.047,-0.035 -0.023,-0.058c0.431,-0.352 0.102,-0.943 -0.226,-1.226c-0.212,-0.171 -0.438,-0.274 -0.695,-0.376c-0.125,-0.021 -0.25,-0.055 -0.38,-0.021c-0.079,0 -0.177,0.066 -0.177,0.169c0.024,0.181 0.206,0.307 0.257,0.488c0.05,0.205 0.074,0.432 -0.029,0.637c-0.181,0.307 -0.563,0.387 -0.841,0.591c-0.284,0.249 -0.074,0.658 0.103,0.908c0.175,0.239 0.124,0.512 0,0.749c-0.177,0.376 -0.256,0.785 -0.483,1.17c-0.182,0.251 -0.59,0.103 -0.664,-0.181c-0.051,-0.227 0.049,-0.453 0.022,-0.693c-0.045,-0.228 -0.176,-0.431 -0.403,-0.499c-0.183,-0.034 -0.357,-0.034 -0.511,0.045c-0.432,0.181 -0.688,0.613 -1.023,0.943c-0.075,0.101 -0.124,0.227 -0.153,0.385c-0.154,0.614 -0.022,1.194 -0.205,1.785c-0.056,0.192 -0.097,0.408 -0.152,0.613c1.163,1.193 2.385,2.34 3.651,3.431Z" style="fill:#2e3092;fill-rule:nonzero;"/><path d="M41.398,76.508c0.46,-0.261 0.87,-0.51 1.301,-0.818c0.408,-0.307 0.789,-0.568 1.119,-0.944c0.465,-0.51 0.859,-0.999 1.266,-1.601c-0.261,-0.374 -0.517,-0.749 -0.76,-1.136c-3.205,-5.019 -5.046,-10.767 -5.363,-16.71c-0.022,-0.011 -0.045,-0.011 -0.063,-0.011c-0.329,-0.022 -0.636,0.159 -0.965,0.103c-0.153,-0.046 -0.256,-0.17 -0.306,-0.307c-0.08,-0.274 0.05,-0.534 0.125,-0.784c0.13,-0.329 0.13,-0.738 -0.177,-0.943c-0.357,-0.306 -0.84,-0.408 -1.301,-0.285c-0.386,0.127 -0.743,0.23 -1.123,0.387c-0.279,0.103 -0.404,0.375 -0.636,0.58c-0.28,0.227 -0.534,0.432 -0.842,0.614c-0.068,0.034 -0.142,0.067 -0.211,0.113c-0.01,0.386 -0.017,0.784 -0.017,1.181c0,5.055 0.927,9.997 2.757,14.666c0.931,2.395 2.09,4.68 3.452,6.839c0.558,-0.377 1.13,-0.649 1.744,-0.944Z" style="fill:#2e3092;fill-rule:nonzero;"/><path d="M35.366,107.316c-3.499,-3.033 -6.532,-6.443 -9.058,-10.157c-0.462,0.103 -0.841,0.376 -1.279,0.557c-0.359,0.126 -0.71,0.182 -1.096,0.103c-0.126,-0.023 -0.204,-0.124 -0.279,-0.205c-0.073,-0.102 -0.029,-0.25 0.075,-0.329c0.306,-0.205 0.59,-0.33 0.794,-0.637c0.126,-0.226 0.198,-0.568 0.023,-0.714c-0.177,-0.182 -0.462,-0.126 -0.716,-0.079c-0.563,0.102 -1.118,0 -1.528,-0.41c-0.102,-0.079 -0.226,-0.125 -0.357,-0.103c-0.359,0.126 -0.563,0.568 -0.943,0.568c-0.534,0.047 -1.177,0.25 -1.58,-0.204c-0.334,-0.34 0.302,-0.409 0.535,-0.59c0.585,-0.455 0.919,-1.399 0.278,-1.966c-0.249,-0.227 -0.608,-0.25 -0.914,-0.022c-0.256,0.205 -0.386,0.488 -0.636,0.636c-0.358,0.227 -0.847,0.352 -1.228,0.102c-0.306,-0.204 -0.585,-0.488 -0.943,-0.455c-0.277,0.022 -0.613,0.022 -0.839,-0.102c-0.483,-0.284 -0.893,-0.636 -1.454,-0.715c-0.36,-0.081 -0.715,-0.023 -1.046,0.102c-0.104,0.034 -0.199,0.057 -0.302,0.091c7.18,8.94 17.017,15.653 28.314,18.936c-2.056,-1.375 -3.997,-2.84 -5.821,-4.407Z" style="fill:#2e3092;fill-rule:nonzero;"/><path d="M112.417,57.674c-2.566,3.283 -5.605,6.145 -9.03,8.519c-2.766,1.91 -5.736,3.475 -8.86,4.658c0.682,0.591 1.363,1.171 2.096,1.75c0.102,0.079 0.227,0.124 0.33,0.204c1.022,0.921 2.067,1.612 3.243,2.351c0.886,0.558 1.754,1.01 2.725,1.318c0.415,0.137 0.795,0.262 1.199,0.387c1.278,-0.592 2.528,-1.239 3.742,-1.944c1.24,-0.715 2.443,-1.499 3.603,-2.327c1.338,-4.829 2.06,-9.918 2.06,-15.177c0,-0.399 -0.004,-0.796 -0.011,-1.204c-0.351,0.5 -0.715,0.989 -1.097,1.465Z" style="fill:#2e3092;fill-rule:nonzero;"/><path d="M96.645,95.524c-0.227,-0.125 -0.51,-0.102 -0.739,0.08c-0.152,0.125 -0.226,0.306 -0.357,0.432c-0.046,0.022 -0.146,0.079 -0.198,0.044c-0.488,-0.225 -0.869,-0.635 -1.204,-1.067c-0.574,-0.659 -1.022,-1.34 -1.472,-2.079c-3.578,0.409 -7.184,0.488 -10.792,0.216c-4.02,-0.306 -7.99,-1.034 -11.852,-2.181c0.079,0.704 0.334,1.341 0.635,1.978c0.05,0.101 0.08,0.26 0.05,0.362c-0.022,0.353 0.03,0.807 -0.277,1.068c-0.154,0.102 -0.38,-0.023 -0.432,-0.182c-0.103,-0.228 -0.051,-0.478 -0.181,-0.681c-0.154,-0.262 -0.432,-0.489 -0.739,-0.444c-0.79,0.16 -0.739,1.18 -0.336,1.693c0.261,0.274 0.462,0.534 0.665,0.841c0.182,0.227 0.308,0.511 0.336,0.818c0,0.579 0.074,1.17 -0.103,1.75c-0.103,0.307 -0.284,0.59 -0.487,0.84c-0.126,0.181 -0.229,0.306 -0.382,0.466c-0.011,0.011 -0.021,0.034 -0.034,0.046c7.071,2.113 14.751,3.156 22.294,3.033c2.522,-1.91 4.872,-4.01 7.038,-6.306c-0.455,-0.273 -0.967,-0.489 -1.433,-0.727Z" style="fill:#2e3092;fill-rule:nonzero;"/><path d="M67.451,112.27c-4.481,-1.115 -8.826,-2.75 -12.927,-4.886c-4.021,-2.09 -7.815,-4.658 -11.264,-7.633c-1.231,-1.057 -2.419,-2.171 -3.555,-3.329c-0.102,0.09 -0.204,0.182 -0.323,0.271c-0.251,0.183 -0.484,0.308 -0.784,0.387c-0.312,0.079 -0.716,-0.125 -0.562,-0.465c0.103,-0.227 0.329,-0.432 0.432,-0.705c0.074,-0.34 0,-0.691 -0.227,-0.897c-0.461,-0.431 -1.382,-0.965 -1.892,-0.307c-0.177,0.229 -0.228,0.513 -0.506,0.693c-0.182,0.103 -0.359,0.148 -0.54,0.046c-0.227,-0.171 -0.022,-0.51 -0.124,-0.739c-0.256,-0.556 -0.841,-0.863 -1.403,-1.044c-0.585,-0.205 -1.176,0.021 -1.608,0.454c-0.255,0.284 -0.277,0.671 -0.205,1.055c0.052,0.251 0.308,0.331 0.462,0.502c0.102,0.182 0.072,0.385 0.05,0.568c-0.029,0.101 -0.153,0.203 -0.227,0.226c-0.233,0.103 -0.46,0.023 -0.692,0.058c-0.126,0.022 -0.199,0.09 -0.331,0.09c-0.073,0.033 -0.124,0.078 -0.181,0.136c-0.125,0.204 -0.097,0.432 -0.278,0.579c-0.229,0.182 -0.483,0.284 -0.767,0.386c-0.382,0.103 -0.75,0.284 -1.142,0.387c2.176,2.908 4.687,5.601 7.514,8.054c2.907,2.522 6.157,4.782 9.685,6.747c3.537,0.693 7.191,1.056 10.933,1.056c4.164,0 8.225,-0.455 12.132,-1.305c-0.562,-0.125 -1.119,-0.252 -1.67,-0.385Z" style="fill:#2e3092;fill-rule:nonzero;"/><path d="M45.987,72.135c1.317,-1.375 2.522,-2.647 3.67,-4.225c0.051,-0.047 0.079,-0.127 0.107,-0.171c0.198,-0.25 0.376,-0.478 0.562,-0.716c-2.72,-3.93 -4.418,-8.486 -4.907,-13.29c-0.089,0.034 -0.17,0.089 -0.221,0.181c-0.074,0.182 -0.153,0.386 -0.278,0.557c-0.11,0.182 -0.257,0.306 -0.41,0.466c-0.05,0.102 -0.131,0.181 -0.151,0.284c-0.133,0.681 0,1.396 -0.331,2.032c-0.104,0.16 -0.313,0.126 -0.437,0.08c-0.154,-0.057 -0.255,-0.227 -0.228,-0.432c0.051,-0.26 0.228,-0.441 0.205,-0.692c-0.028,-0.08 -0.028,-0.181 -0.051,-0.25c-0.08,-0.284 -0.285,-0.467 -0.562,-0.512c-0.205,-0.034 -0.382,0.045 -0.484,0.205c-0.357,0.579 -0.613,1.215 -1.226,1.578c-0.176,0.103 -0.381,0 -0.534,-0.124l-0.103,0c-0.068,-0.058 -0.136,-0.102 -0.194,-0.16c0.54,5.101 2.25,10.008 5.016,14.349c0.184,0.284 0.369,0.567 0.557,0.84Z" style="fill:#2e3092;fill-rule:nonzero;"/><path d="M56.262,29.309c-0.17,-0.579 -0.341,-1.136 -0.477,-1.703c-3.845,1.68 -7.246,4.27 -9.918,7.565c-2.384,2.942 -4.112,6.35 -5.071,9.997c0.022,-0.011 0.045,-0.011 0.068,-0.022c0.483,-0.205 0.915,-0.41 1.404,-0.637c0.124,-0.058 0.254,-0.205 0.328,-0.33c0.227,-0.511 0.534,-1.045 1.119,-1.102c0.897,-0.124 1.608,0.489 2.375,0.818c0.006,0 0.016,0.012 0.027,0.012c0.637,-2.203 1.608,-4.35 2.87,-6.305c1.242,-1.931 2.737,-3.635 4.435,-5.066c1.142,-0.966 2.357,-1.796 3.641,-2.465c-0.336,-0.149 -0.67,-0.352 -0.801,-0.762Z" style="fill:#2e3092;fill-rule:nonzero;"/><path d="M58.625,30.73c-1.556,0.703 -3.021,1.635 -4.38,2.783c-1.596,1.352 -3.01,2.953 -4.186,4.782c-1.759,2.738 -2.919,5.85 -3.368,8.986c0.24,-0.113 0.46,-0.262 0.648,-0.455c0.205,-0.226 0.307,-0.533 0.483,-0.784c0.102,-0.136 0.283,-0.181 0.432,-0.204c0.285,-0.08 0.538,-0.137 0.795,-0.239c0.124,-0.046 0.277,-0.046 0.408,0c0.359,0.08 0.687,0.159 1.046,0.08c0.227,-0.046 0.38,-0.228 0.585,-0.307c0.175,-0.045 0.359,-0.079 0.534,-0.045l0.017,0c0.612,-3.044 1.903,-5.863 3.822,-8.316c1.33,-1.691 2.931,-3.168 4.759,-4.373c0.239,-0.16 0.478,-0.308 0.723,-0.455c-0.013,-0.068 -0.023,-0.124 -0.04,-0.192c-0.126,-0.465 -0.666,-0.387 -0.971,-0.16c-0.28,0.239 -0.433,0.513 -0.712,0.738c-0.305,0.206 -0.636,-0.125 -0.692,-0.397c-0.074,-0.307 0.108,-0.591 0.255,-0.875c-0.067,-0.171 -0.073,-0.386 -0.158,-0.567Z" style="fill:#2e3092;fill-rule:nonzero;"/><path d="M55.115,88.697c0.153,-0.079 0.306,-0.136 0.409,-0.284c0.255,-0.465 0.432,-0.977 0.408,-1.476c-0.051,-0.545 -0.437,-1.046 -0.943,-1.205c-0.459,-0.124 -0.919,-0.045 -1.379,-0.182c-0.534,-0.147 -0.842,-0.578 -1.045,-1.067c-0.051,-0.126 0,-0.284 0.101,-0.386c0.132,-0.103 0.307,-0.171 0.485,-0.069c0.283,0.25 0.742,0.273 0.941,-0.056c0.211,-0.352 0.182,-0.761 0.08,-1.148c-0.08,-0.329 -0.357,-0.51 -0.637,-0.716c-0.26,-0.204 -0.357,-0.522 -0.511,-0.807c-0.215,-0.157 -0.431,-0.318 -0.642,-0.476c-0.055,0 -0.113,0 -0.169,0.011c-0.591,0.181 -1.204,0.512 -1.454,1.068c-0.205,0.386 -0.205,0.841 -0.205,1.248c-0.027,0.41 0.124,0.842 0.074,1.251c-0.051,0.387 -0.029,0.84 -0.409,1.102c-0.257,0.147 -0.534,0.08 -0.79,0.25c-0.256,0.182 -0.483,0.329 -0.687,0.569c-0.256,0.329 -0.409,0.704 -0.512,1.09c-0.056,0.192 -0.112,0.375 -0.163,0.556c1.009,1.034 2.124,2.035 3.339,2.989c1.3,1.021 2.72,1.988 4.243,2.907c0.136,-0.217 0.363,-0.352 0.488,-0.591c0.125,-0.227 0.103,-0.478 0.052,-0.738c-0.052,-0.227 -0.285,-0.354 -0.386,-0.534c-0.148,-0.353 -0.148,-0.841 0.204,-1.068c0.13,-0.08 0.284,0.024 0.408,-0.023c0.205,-0.103 0.437,-0.227 0.483,-0.488c0.081,-0.409 0.051,-0.819 -0.073,-1.193c-0.024,-0.078 -0.131,-0.136 -0.205,-0.102c-0.182,0 -0.277,0.227 -0.461,0.273c-0.131,0.034 -0.255,0.079 -0.38,0.102c-0.255,0.034 -0.511,-0.023 -0.692,-0.205c-0.125,-0.17 -0.177,-0.455 0.028,-0.602Z" style="fill:#2e3092;fill-rule:nonzero;"/><path d="M36.52,39.522c0.277,0.125 0.503,0.307 0.801,0.397c0.561,0.126 1.067,-0.056 1.556,-0.283c0.431,-0.204 0.766,-0.581 1.249,-0.659c0.557,-0.092 1.095,0.034 1.544,0.318c0.893,-1.75 1.96,-3.396 3.205,-4.929c2.844,-3.5 6.479,-6.261 10.591,-8.022c-0.027,-0.056 -0.062,-0.113 -0.095,-0.169c-0.074,-0.081 -0.229,-0.126 -0.307,-0.023c-0.028,0.023 -0.102,-0.024 -0.124,0c-0.717,0.329 -1.455,0.578 -2.244,0.76c-0.694,0.159 -1.636,-0.022 -1.813,-0.818c-0.073,-0.375 0.328,-0.579 0.664,-0.452c0.256,0.1 0.506,0.203 0.791,0.124c0.176,-0.047 0.255,-0.206 0.379,-0.329c0.267,-0.319 0.256,-0.865 -0.117,-1.116c-1.728,0.694 -3.381,1.536 -4.93,2.511c0.113,0.41 0.146,0.818 0.18,1.228c0.022,0.158 -0.08,0.306 -0.18,0.408c-0.149,0.126 -0.383,0.024 -0.434,-0.124c-0.135,-0.329 -0.323,-0.613 -0.545,-0.863c-4.446,3.056 -8.015,7.247 -10.171,12.041Z" style="fill:#2e3092;fill-rule:nonzero;"/><path d="M38.848,42.725c-0.432,0.307 -0.586,0.841 -0.483,1.353c0.051,0.306 0.204,0.555 0.358,0.839c0.051,0.047 0.102,0.103 0.154,0.171c0.124,0.137 0.306,0.261 0.483,0.261l0.068,0c0.437,-1.794 1.05,-3.532 1.827,-5.202c-0.158,-0.023 -0.322,-0.046 -0.493,-0.023c-0.177,0 -0.438,0.079 -0.438,0.273c-0.05,0.489 0.131,1.023 -0.226,1.431c-0.358,0.386 -0.82,0.591 -1.25,0.897Z" style="fill:#2e3092;fill-rule:nonzero;"/><path d="M43.948,27.242c-0.056,0.272 -0.079,0.534 -0.13,0.784c0.55,-0.455 1.125,-0.887 1.71,-1.296c-0.182,-0.056 -0.369,-0.089 -0.558,-0.124c-0.437,-0.044 -0.92,0.158 -1.022,0.636Z" style="fill:#2e3092;fill-rule:nonzero;"/><path d="M51.315,47.588c0.033,-0.41 0.085,-0.82 0.147,-1.217c-0.237,0.024 -0.46,0.08 -0.6,0.307c-0.184,0.274 -0.103,0.74 0.198,0.841c0.079,0.035 0.169,0.057 0.255,0.069Z" style="fill:#2e3092;fill-rule:nonzero;"/><path d="M51.246,48.666c-0.073,0 -0.141,0 -0.21,0.024c-0.125,0.022 -0.226,0.022 -0.358,0.045c-0.511,0.103 -1.021,0.056 -1.424,0.34c-0.483,0.352 -0.715,0.944 -1.301,1.169c-0.335,0.126 -0.307,0.535 -0.183,0.819c0.233,0.453 0.642,0.987 0.335,1.5c-0.13,0.158 -0.283,0.261 -0.459,0.351c-0.255,0.158 -0.512,0.238 -0.767,0.388c-0.064,0.044 -0.125,0.078 -0.188,0.102c0.425,4.485 1.955,8.758 4.42,12.46c0.011,-0.011 0.017,-0.034 0.028,-0.044c0.124,-0.206 0.227,-0.41 0.33,-0.615c0.232,-0.476 0.533,-0.92 0.744,-1.397c0.227,-0.51 0.38,-0.999 0.657,-1.477c0.411,-0.636 1.075,-0.976 1.734,-1.283c0.039,-0.011 0.073,-0.024 0.107,-0.035c-2.261,-3.396 -3.482,-7.383 -3.482,-11.518c0,-0.272 0.006,-0.555 0.017,-0.829Z" style="fill:#2e3092;fill-rule:nonzero;"/><path d="M44.81,47.383c0.171,0.124 0.359,0.181 0.551,0.181c0.109,-0.909 0.275,-1.806 0.496,-2.702c-0.421,-0.057 -0.846,-0.16 -1.273,-0.024c-0.307,0.103 -0.636,0.363 -0.715,0.694c-0.074,0.272 -0.024,0.555 0.13,0.805c0.257,0.387 0.461,0.773 0.811,1.046Z" style="fill:#2e3092;fill-rule:nonzero;"/><path d="M350.364,72.394c1.807,-0.357 3.222,-1.302 4.599,-2.464c0.14,-0.106 0.354,-0.175 0.531,-0.069c0.319,0.243 0.389,0.631 0.601,0.951c0.248,0.313 0.497,0.562 0.815,0.77c1.768,1.019 3.925,0.493 5.341,-0.807c0.53,-0.527 1.308,-1.091 1.167,-1.934c-0.037,-0.249 -0.354,-0.249 -0.604,-0.213c-0.245,0.07 -0.424,0.246 -0.636,0.425c-0.176,0.139 -0.388,0.206 -0.599,0.313c-0.213,0.071 -0.459,0.143 -0.71,0.176c-0.421,0 -0.812,-0.176 -1.061,-0.526c-0.244,-0.351 -0.283,-0.738 -0.283,-1.126c-0.106,-2.884 0.073,-5.73 0.039,-8.615c0,-1.231 0.175,-2.393 -0.074,-3.659c-0.177,-0.912 -0.776,-1.572 -1.555,-2.001c-0.32,-0.176 -0.638,-0.281 -0.956,-0.426c-1.096,-0.386 -2.228,-0.386 -3.36,-0.351c-0.705,0.038 -1.414,0.213 -2.12,0.426c-1.099,0.313 -2.019,0.806 -2.972,1.508c-1.132,0.844 -1.983,1.864 -2.479,3.096c-0.211,0.494 -0.387,1.197 0.146,1.514c1.129,0.669 2.333,-0.25 3.144,-1.094c0.107,-0.138 0.179,-0.282 0.249,-0.42c0.25,-0.669 0.25,-1.407 0.635,-2.002c0.672,-1.094 1.91,-1.796 3.219,-1.658c0.744,0.075 1.417,0.533 1.735,1.233c0.141,0.387 0.247,0.776 0.283,1.195c0.103,1.551 0.035,3.06 -0.036,4.61c0,0.282 -0.212,0.489 -0.493,0.632c-1.097,0.458 -2.266,0.668 -3.327,1.194c-0.885,0.458 -1.698,0.914 -2.511,1.515c-1.909,1.476 -3.75,3.761 -2.69,6.188c0.212,0.455 0.568,0.844 0.993,1.161c0.919,0.632 1.943,0.702 2.969,0.458Zm-0.105,-4.678c0.141,-1.232 0.848,-2.321 1.77,-3.166c0.813,-0.708 1.689,-1.365 2.793,-1.478c0.354,-0.037 0.566,0.283 0.566,0.564c0.071,1.513 0.214,3.059 -0.319,4.498c-0.352,0.987 -1.345,1.764 -2.44,1.833c-1.238,0.069 -2.547,-0.951 -2.37,-2.251Zm-52.653,4.678c1.802,-0.357 3.219,-1.302 4.6,-2.464c0.139,-0.106 0.352,-0.175 0.531,-0.069c0.316,0.243 0.386,0.631 0.598,0.951c0.249,0.313 0.495,0.562 0.814,0.77c1.769,1.019 3.927,0.493 5.34,-0.807c0.531,-0.527 1.312,-1.091 1.169,-1.934c-0.036,-0.249 -0.353,-0.249 -0.601,-0.213c-0.25,0.07 -0.426,0.246 -0.637,0.425c-0.177,0.139 -0.388,0.206 -0.599,0.313c-0.215,0.071 -0.464,0.143 -0.709,0.176c-0.427,0 -0.814,-0.176 -1.062,-0.526c-0.249,-0.351 -0.281,-0.738 -0.281,-1.126c-0.107,-2.884 0.067,-5.73 0.032,-8.615c0,-1.231 0.179,-2.393 -0.068,-3.659c-0.177,-0.912 -0.778,-1.572 -1.559,-2.001c-0.319,-0.176 -0.635,-0.281 -0.952,-0.426c-1.099,-0.386 -2.23,-0.386 -3.36,-0.351c-0.709,0.038 -1.416,0.213 -2.124,0.426c-1.098,0.313 -2.016,0.806 -2.973,1.508c-1.13,0.844 -1.98,1.864 -2.474,3.096c-0.213,0.494 -0.389,1.197 0.14,1.514c1.135,0.669 2.334,-0.25 3.15,-1.094c0.107,-0.138 0.174,-0.282 0.248,-0.42c0.244,-0.669 0.244,-1.407 0.637,-2.002c0.671,-1.094 1.91,-1.796 3.217,-1.658c0.746,0.075 1.418,0.533 1.735,1.233c0.14,0.387 0.246,0.776 0.282,1.195c0.105,1.551 0.037,3.06 -0.036,4.61c0,0.282 -0.212,0.489 -0.496,0.632c-1.096,0.458 -2.265,0.668 -3.323,1.194c-0.886,0.458 -1.698,0.914 -2.511,1.515c-1.912,1.476 -3.75,3.761 -2.689,6.188c0.212,0.455 0.564,0.844 0.99,1.161c0.917,0.632 1.946,0.702 2.971,0.458Zm-0.106,-4.678c0.14,-1.232 0.85,-2.321 1.768,-3.166c0.811,-0.708 1.688,-1.365 2.794,-1.478c0.356,-0.037 0.565,0.283 0.565,0.564c0.073,1.513 0.213,3.059 -0.316,4.498c-0.355,0.987 -1.346,1.764 -2.442,1.833c-1.238,0.069 -2.547,-0.951 -2.369,-2.251Zm84.096,4.497c0.353,-0.032 0.712,-0.069 1.065,-0.138c1.342,-0.319 2.58,-0.601 3.782,-1.338c1.064,-0.664 1.877,-1.441 2.547,-2.497c0.743,-1.156 1.13,-2.39 1.236,-3.69c0.108,-1.195 -0.032,-2.427 -0.53,-3.554c-0.387,-0.844 -0.917,-1.582 -1.556,-2.251c-0.493,-0.525 -1.059,-0.877 -1.661,-1.296c-0.673,-0.462 -1.415,-0.623 -2.053,-1.095c-0.139,-0.105 -0.318,-0.242 -0.248,-0.387c0.109,-0.176 0.322,-0.282 0.532,-0.351c1.028,-0.349 2.052,-0.668 2.937,-1.408c2.156,-1.757 2.579,-4.953 0.918,-7.275c-0.458,-0.599 -0.918,-1.055 -1.521,-1.513c-0.634,-0.456 -1.273,-0.844 -1.979,-1.087c-0.85,-0.283 -1.733,-0.533 -2.619,-0.564c-3.149,-0.213 -6.439,0.456 -8.806,2.709c-0.885,0.876 -1.379,1.932 -1.77,3.09c-0.283,0.988 -0.32,1.97 -0.178,2.99c0.145,0.881 0.462,1.688 0.957,2.427c1.062,1.688 2.688,2.709 4.421,3.515c0.285,0.144 0.139,0.388 -0.069,0.495c-0.53,0.206 -1.095,0.35 -1.664,0.526c-0.316,0.105 -0.6,0.248 -0.92,0.425c-0.601,0.281 -1.131,0.629 -1.628,1.087c-0.423,0.419 -0.741,0.877 -1.06,1.408c-0.142,0.28 -0.284,0.563 -0.356,0.844c-0.103,0.388 -0.208,0.739 -0.281,1.12c-0.073,0.531 -0.073,1.027 0,1.515c0,0.25 0,0.457 0.036,0.705c0.142,0.564 0.317,1.051 0.496,1.584c0.213,0.525 0.567,0.946 0.918,1.401c1.38,1.552 3.324,2.114 5.306,2.427c0.037,0.038 0.106,0.074 0.14,0.074c0.531,0 1.099,0.102 1.628,0.139c0.672,0.038 1.309,0 1.98,-0.037Zm-1.447,-17.686c-1.38,-0.6 -2.655,-1.338 -3.572,-2.638c-0.427,-0.671 -0.603,-1.333 -0.671,-2.071c-0.108,-1.094 0.313,-2.078 0.952,-2.991c0.392,-0.525 0.85,-0.949 1.415,-1.231c0.639,-0.351 1.31,-0.596 2.015,-0.596c0.353,0 0.712,-0.021 1.063,0.032c1.556,0.25 2.864,1.197 3.502,2.603c0.742,1.584 0.885,3.377 0.351,5.066c-0.033,0.175 -0.106,0.383 -0.175,0.563c-0.073,0.205 -0.213,0.383 -0.319,0.596c-0.108,0.143 -0.21,0.281 -0.318,0.423c-0.284,0.351 -0.637,0.563 -0.989,0.702c-1.095,0.495 -2.231,0 -3.254,-0.458Zm0.317,16.46c-1.876,0 -3.644,-1.163 -4.528,-2.853c-0.917,-1.757 -1.059,-3.829 -0.387,-5.693c0.315,-0.95 0.776,-1.796 1.625,-2.39c0.921,-0.637 1.98,-0.6 3.006,-0.319c1.027,0.282 1.84,0.808 2.759,1.37c0.919,0.562 1.734,1.265 2.263,2.253c0.78,1.406 0.814,3.095 0.216,4.571c-0.179,0.352 -0.355,0.702 -0.604,1.022c-0.174,0.207 -0.353,0.387 -0.529,0.63c-0.214,0.283 -0.496,0.458 -0.781,0.633c-0.565,0.388 -1.092,0.564 -1.731,0.706c-0.459,0.07 -0.887,0.101 -1.309,0.07Zm27.802,-20.507c0.177,-0.032 0.388,0.038 0.388,0.214c0.072,3.34 -0.068,6.718 0,10.059c0,0.313 0,0.631 0.14,0.949c0.038,0.176 0.214,0.314 0.392,0.352c1.308,0.211 2.545,-0.038 3.854,0.106c0.07,0.031 0.176,0.105 0.213,0.176c0.071,0.525 0.108,1.125 -0.249,1.506c-0.882,-0.069 -1.765,-0.136 -2.649,-0.099c-0.286,0 -0.604,0 -0.923,0.03c-0.318,0.038 -0.638,0.213 -0.706,0.532c-0.178,0.631 -0.072,1.264 -0.072,1.895c0.034,1.163 -0.211,2.321 0.107,3.448c0.353,1.164 1.769,0.844 2.759,1.089c0.497,0.142 0.638,0.668 0.388,1.094c-0.141,0.176 -0.354,0.138 -0.531,0.138c-0.741,0.068 -1.45,0.038 -2.191,0c-1.874,-0.107 -3.785,0 -5.66,0.068c-0.459,0 -0.956,0.107 -1.415,0.038c-0.178,0 -0.389,0 -0.53,-0.174c-0.141,-0.245 -0.179,-0.527 0,-0.776c0.105,-0.176 0.318,-0.208 0.458,-0.246c0.672,-0.212 1.346,-0.348 1.841,-0.843c0.213,-0.245 0.353,-0.527 0.426,-0.844c0.068,-0.494 0.105,-0.952 0.068,-1.409c0,-1.158 0.178,-2.283 -0.036,-3.446c-0.032,-0.245 -0.318,-0.456 -0.563,-0.456c-2.654,-0.208 -5.308,-0.07 -7.96,0.036c-1.062,0.039 -2.087,0.282 -3.149,0.175c-0.247,0 -0.493,-0.037 -0.707,-0.175c-0.212,-0.174 -0.246,-0.424 -0.283,-0.669c-0.035,-0.632 0.317,-1.162 0.743,-1.651c1.169,-1.445 2.3,-2.747 3.503,-4.148c1.13,-1.337 2.121,-2.57 3.254,-3.94c0.707,-0.951 1.413,-1.759 2.156,-2.71c1.735,-2.144 3.36,-4.077 5.13,-6.26c0.708,-0.914 1.308,-1.759 2.015,-2.671c0.284,-0.351 0.496,-0.739 0.849,-0.913c0.391,-0.214 0.816,-0.321 1.238,-0.281c0.389,0.067 0.777,0.104 1.131,0.35c0.39,0.281 0.284,0.807 0.036,1.089c-1.555,1.549 -3.005,2.957 -4.493,4.572c-3.287,3.622 -6.295,7.035 -9.479,10.727c-0.814,0.95 -1.554,1.826 -2.298,2.845c-0.246,0.283 -0.497,0.532 -0.742,0.809c-0.213,0.281 -0.459,0.707 -0.072,0.919c0.391,0.175 0.814,0.101 1.24,0.138c0.46,0.037 0.885,-0.037 1.344,0c0.884,0 1.802,0.037 2.686,0.037c1.344,0 2.619,0.176 3.997,-0.106c0.283,-0.038 0.46,-0.319 0.46,-0.602c0.109,-3.021 0,-6.048 0.072,-9.07c0,-0.35 0.212,-0.669 0.53,-0.776c1.098,-0.418 2.087,-0.877 3.29,-1.126Zm21.963,-5.341c2.088,0.069 4.213,-0.107 6.299,-0.037c0.282,0 0.636,0.037 0.741,0.356c0.179,0.526 -0.105,1.02 -0.352,1.475c-0.638,1.302 -1.31,2.53 -1.875,3.866c-3.431,7.739 -6.615,15.401 -9.939,23.104c-0.461,0.212 -0.957,0.212 -1.451,0.072c-0.388,-0.105 -0.356,-0.635 -0.211,-0.949c3.006,-7.594 6.12,-14.946 9.088,-22.546c0.106,-0.281 0.178,-0.561 0.106,-0.837c-0.034,-0.143 -0.176,-0.25 -0.318,-0.25c-2.827,-0.174 -5.625,-0.106 -8.453,-0.138c-0.778,-0.036 -1.522,-0.075 -2.3,-0.036c-0.563,0 -1.097,0.036 -1.661,-0.039c-0.179,0 -0.352,-0.101 -0.425,-0.281c-0.425,-1.195 -0.493,-2.459 -0.354,-3.723c0.036,-0.249 0.213,-0.494 0.461,-0.494c0.53,-0.069 1.023,0.106 1.555,0.177c0.707,0.068 1.417,0.105 2.124,0.141c1.308,0.102 2.616,0.07 3.925,0.07c1.026,0.032 2.015,0.032 3.04,0.069Zm-16.134,23.947c0,-1.631 1.328,-2.955 2.969,-2.955c1.64,0 2.969,1.324 2.969,2.955c0,1.629 -1.329,2.951 -2.969,2.951c-1.641,0 -2.969,-1.322 -2.969,-2.951Zm-88.42,-16.103c0.82,0.095 1.59,0.313 2.262,0.844c0.355,0.28 0.673,0.558 0.956,0.945c0.249,0.356 0.354,0.738 0.672,1.056l0.106,0c0.954,-1.087 2.087,-1.901 3.396,-2.426c2.653,-1.158 6.262,-0.669 7.745,2.078c0.286,0.561 0.499,1.156 0.531,1.757c0.283,4.078 0.035,8.12 0.214,12.2c0,0.424 0.208,0.774 0.566,1.02c0.637,0.385 1.45,0.318 1.98,0.811c0.175,0.137 0.175,0.456 -0.037,0.594c-0.14,0.107 -0.354,0.107 -0.493,0.107c-2.761,0 -5.519,-0.068 -8.279,-0.033c-0.245,0 -0.495,-0.074 -0.636,-0.28c-0.104,-0.182 -0.07,-0.426 0.106,-0.494c0.671,-0.35 1.417,-0.283 2.052,-0.67c0.248,-0.175 0.354,-0.419 0.493,-0.668c0.108,-0.315 0.146,-0.669 0.146,-0.983c-0.038,-3.379 0,-6.755 -0.038,-10.127c-0.035,-0.809 -0.213,-1.546 -0.742,-2.216c-0.494,-0.632 -1.203,-0.95 -2.051,-1.125c-0.919,-0.143 -1.807,0.031 -2.619,0.387c-0.778,0.352 -1.519,0.945 -1.803,1.79c-0.14,0.456 -0.213,0.918 -0.213,1.375c-0.068,3.547 -0.036,7.068 -0.036,10.617c0.213,0.915 1.274,1.125 2.089,1.375c0.315,0.101 0.707,0.383 0.635,0.769c-0.106,0.389 -0.53,0.351 -0.846,0.389c-1.311,0.036 -2.62,-0.319 -3.928,-0.244c-1.449,0.07 -2.9,0.206 -4.35,0.176c-0.32,0 -0.743,-0.071 -0.776,-0.457c0,-0.25 0.139,-0.493 0.386,-0.601c0.884,-0.282 2.265,-0.137 2.582,-1.194c0.282,-0.914 0.108,-1.865 0.108,-2.815l0,-1.614c0,-0.989 0,-1.934 -0.038,-2.922l0,-3.69c-0.034,-0.739 -0.211,-1.447 -0.671,-2.041c-0.46,-0.599 -1.165,-0.807 -1.875,-0.913c-0.671,-0.075 -1.343,0.137 -2.016,0.243c-0.248,0.038 -0.459,0.109 -0.672,0.214c-0.742,0.281 -1.414,0.77 -1.768,1.508c-0.531,1.057 -0.459,2.252 -0.493,3.377c-0.076,2.671 -0.109,5.348 0.034,8.019c0,0.563 0.28,1.09 0.813,1.41c0.458,0.281 0.99,0.244 1.448,0.456c0.248,0.105 0.462,0.351 0.39,0.632c-0.071,0.282 -0.282,0.388 -0.53,0.388c-1.063,0.137 -2.121,-0.145 -3.185,-0.176c-1.802,-0.037 -3.641,0.28 -5.444,0.244c-0.251,0 -0.604,0 -0.744,-0.281c-0.141,-0.244 0.038,-0.494 0.212,-0.669c0.46,-0.313 0.99,-0.283 1.487,-0.495c0.6,-0.276 1.093,-0.732 1.239,-1.401c0.068,-0.388 0.068,-0.739 0.068,-1.095c0.071,-3.266 0.071,-6.537 0.034,-9.808c0,-0.282 -0.069,-0.564 -0.14,-0.809c-0.108,-0.25 -0.319,-0.386 -0.529,-0.456c-0.284,-0.143 -0.532,-0.25 -0.745,-0.493c-0.283,-0.351 -0.139,-0.808 0.213,-1.02c0.67,-0.42 1.417,-0.351 2.085,-0.738c0.284,-0.144 0.602,-0.319 0.884,-0.527c0.676,-0.531 1.202,-1.094 1.808,-1.657c0.28,-0.207 0.742,-0.419 0.916,-0.031c0.286,0.631 0.074,1.37 0,2.039c0,0.314 -0.034,0.633 0.038,0.982c0.036,0.144 0.177,0.175 0.281,0.069c0.248,-0.205 0.39,-0.488 0.639,-0.737c0.459,-0.457 0.953,-0.74 1.485,-1.021c0.882,-0.418 1.805,-0.771 2.794,-0.876c0.6,-0.107 1.203,-0.142 1.804,-0.068Zm-165.31,0c0.819,0.095 1.591,0.313 2.26,0.844c0.357,0.28 0.676,0.558 0.956,0.945c0.246,0.356 0.354,0.738 0.675,1.056l0.104,0c0.956,-1.087 2.088,-1.901 3.396,-2.426c2.653,-1.158 6.26,-0.669 7.746,2.078c0.284,0.561 0.493,1.156 0.531,1.757c0.282,4.078 0.034,8.12 0.212,12.2c0,0.424 0.213,0.774 0.566,1.02c0.637,0.385 1.45,0.318 1.981,0.811c0.178,0.137 0.178,0.456 -0.034,0.594c-0.144,0.107 -0.356,0.107 -0.497,0.107c-2.759,0 -5.518,-0.068 -8.277,-0.033c-0.247,0 -0.494,-0.074 -0.638,-0.28c-0.102,-0.182 -0.068,-0.426 0.11,-0.494c0.671,-0.35 1.413,-0.283 2.05,-0.67c0.247,-0.175 0.352,-0.419 0.496,-0.668c0.103,-0.315 0.14,-0.669 0.14,-0.983c-0.037,-3.379 0,-6.755 -0.037,-10.127c-0.034,-0.809 -0.212,-1.546 -0.744,-2.216c-0.492,-0.632 -1.198,-0.95 -2.049,-1.125c-0.919,-0.143 -1.803,0.031 -2.618,0.387c-0.777,0.352 -1.519,0.945 -1.803,1.79c-0.142,0.456 -0.213,0.918 -0.213,1.375c-0.068,3.547 -0.034,7.068 -0.034,10.617c0.213,0.915 1.273,1.125 2.086,1.375c0.316,0.101 0.708,0.383 0.636,0.769c-0.104,0.389 -0.529,0.351 -0.847,0.389c-1.31,0.036 -2.618,-0.319 -3.929,-0.244c-1.449,0.07 -2.898,0.206 -4.349,0.176c-0.318,0 -0.743,-0.071 -0.777,-0.457c0,-0.25 0.14,-0.493 0.389,-0.601c0.884,-0.282 2.263,-0.137 2.582,-1.194c0.282,-0.914 0.106,-1.865 0.106,-2.815l0,-1.614c0,-0.989 0,-1.934 -0.034,-2.922l0,-3.69c-0.037,-0.739 -0.216,-1.447 -0.675,-2.041c-0.459,-0.599 -1.166,-0.807 -1.875,-0.913c-0.672,-0.075 -1.344,0.137 -2.015,0.243c-0.247,0.038 -0.46,0.109 -0.673,0.214c-0.742,0.281 -1.415,0.77 -1.766,1.508c-0.533,1.057 -0.46,2.252 -0.496,3.377c-0.071,2.671 -0.106,5.348 0.036,8.019c0,0.563 0.281,1.09 0.811,1.41c0.46,0.281 0.993,0.244 1.454,0.456c0.246,0.105 0.459,0.351 0.387,0.632c-0.072,0.282 -0.284,0.388 -0.531,0.388c-1.059,0.137 -2.121,-0.145 -3.185,-0.176c-1.802,-0.037 -3.641,0.28 -5.446,0.244c-0.247,0 -0.599,0 -0.743,-0.281c-0.14,-0.244 0.036,-0.494 0.212,-0.669c0.46,-0.313 0.992,-0.283 1.488,-0.495c0.6,-0.276 1.093,-0.732 1.237,-1.401c0.069,-0.388 0.069,-0.739 0.069,-1.095c0.073,-3.266 0.073,-6.537 0.037,-9.808c0,-0.282 -0.071,-0.564 -0.142,-0.809c-0.108,-0.25 -0.318,-0.386 -0.532,-0.456c-0.282,-0.143 -0.528,-0.25 -0.742,-0.493c-0.284,-0.351 -0.143,-0.808 0.214,-1.02c0.671,-0.42 1.413,-0.351 2.087,-0.738c0.281,-0.144 0.6,-0.319 0.885,-0.527c0.671,-0.531 1.201,-1.094 1.802,-1.657c0.285,-0.207 0.744,-0.419 0.919,-0.031c0.284,0.631 0.071,1.37 0,2.039c0,0.314 -0.034,0.633 0.037,0.982c0.034,0.144 0.175,0.175 0.282,0.069c0.248,-0.205 0.39,-0.488 0.637,-0.737c0.459,-0.457 0.955,-0.74 1.487,-1.021c0.884,-0.418 1.802,-0.771 2.793,-0.876c0.6,-0.107 1.201,-0.142 1.805,-0.068Zm122.864,0.281c2.194,0.054 4.597,1.195 5.307,3.409c0.141,0.458 0.212,0.952 0.212,1.438c0.069,3.698 0.069,7.421 0.108,11.118c0,0.381 0,0.844 0.352,1.158c0.424,0.35 0.918,0.492 1.45,0.631c0.281,0.074 0.39,0.356 0.281,0.638c-0.07,0.206 -0.281,0.28 -0.495,0.313c-1.98,0.038 -3.922,-0.175 -5.944,0c-0.741,0.068 -1.519,0.142 -2.261,-0.107c-0.248,-0.106 -0.354,-0.388 -0.248,-0.594c0.142,-0.25 0.424,-0.319 0.675,-0.389c0.351,-0.037 0.669,-0.067 0.989,-0.174c0.565,-0.213 0.845,-0.775 0.918,-1.339c0.212,-1.69 0.178,-3.303 0.178,-4.961c0,-1.896 0.14,-3.76 -0.036,-5.66c-0.07,-0.701 -0.282,-1.333 -0.745,-1.895c-0.846,-0.953 -2.085,-1.446 -3.357,-1.302c-1.524,0.175 -3.078,0.913 -3.68,2.391c-0.144,0.387 -0.072,0.806 -0.072,1.231c0,3.376 -0.072,6.718 -0.035,10.089c0.035,0.565 0.322,1.165 0.885,1.371c0.601,0.212 1.277,0.212 1.876,0.532c0.174,0.106 0.213,0.312 0.14,0.494c-0.071,0.206 -0.245,0.313 -0.425,0.28c-2.972,-0.212 -5.872,0 -8.805,0.033c-0.285,0.038 -0.675,-0.033 -0.745,-0.387c-0.036,-0.282 0.212,-0.42 0.427,-0.564c0.634,-0.313 1.377,-0.351 1.907,-0.844c0.78,-0.771 0.672,-1.896 0.672,-2.916c-0.033,-4.328 0,-8.688 0,-13.012c0,-2.92 0.072,-5.803 -0.033,-8.72c0,-0.913 -1.026,-1.088 -1.735,-1.406c-0.213,-0.106 -0.317,-0.351 -0.246,-0.564c0.141,-0.388 0.528,-0.525 0.884,-0.631c1.449,-0.564 2.76,-1.234 4.244,-1.69c0.423,-0.106 1.095,-0.143 1.166,0.42c0.07,0.845 -0.142,1.657 -0.142,2.465c-0.107,3.515 -0.07,7.031 -0.035,10.546c0,0.424 -0.177,0.882 0.106,1.268l0.141,0c0.677,-0.561 1.242,-1.088 1.981,-1.549c1.276,-0.77 2.692,-1.159 4.14,-1.121Zm-69.109,-0.665c-3.431,0.496 -6.329,2.778 -7.709,5.906c-0.389,0.951 -0.71,1.864 -0.815,2.884c-0.247,1.833 -0.178,3.661 0.531,5.349c0.425,0.945 0.918,1.864 1.626,2.671c2.088,2.321 5.165,3.295 8.171,3.196c2.265,-0.067 4.457,-0.807 6.298,-2.245c0.777,-0.638 1.377,-1.303 1.942,-2.116c2.619,-3.758 2.513,-8.681 -0.457,-12.091c-2.37,-2.709 -5.978,-4.046 -9.587,-3.554Zm2.617,1.196c1.31,0.456 2.266,1.439 3.007,2.639c1.874,2.953 2.194,6.362 1.241,9.666c-0.498,1.795 -1.275,3.52 -2.938,4.679c-0.637,0.425 -1.31,0.717 -2.053,0.775c-0.459,0.032 -0.918,0 -1.343,-0.141c-0.637,-0.209 -1.132,-0.527 -1.628,-0.985c-1.909,-1.826 -2.547,-4.359 -2.865,-6.856c-0.069,-0.6 -0.069,-1.233 -0.069,-1.832c0,-0.665 0.035,-1.332 0.14,-2.04c0.176,-1.301 0.425,-2.528 1.098,-3.69c0.53,-0.878 1.203,-1.583 2.087,-2.04c1.024,-0.493 2.228,-0.526 3.323,-0.175Zm40.141,-1.196c-3.43,0.496 -6.333,2.778 -7.713,5.906c-0.388,0.951 -0.707,1.864 -0.814,2.884c-0.246,1.833 -0.176,3.661 0.531,5.349c0.424,0.945 0.92,1.864 1.627,2.671c2.089,2.321 5.167,3.295 8.172,3.196c2.265,-0.067 4.458,-0.807 6.297,-2.245c0.778,-0.638 1.381,-1.303 1.944,-2.116c2.619,-3.758 2.512,-8.681 -0.459,-12.091c-2.368,-2.709 -5.977,-4.046 -9.585,-3.554Zm2.616,1.196c1.31,0.456 2.266,1.439 3.005,2.639c1.875,2.953 2.198,6.362 1.242,9.666c-0.497,1.795 -1.274,3.52 -2.937,4.679c-0.638,0.425 -1.307,0.717 -2.053,0.775c-0.456,0.032 -0.919,0 -1.343,-0.141c-0.633,-0.209 -1.133,-0.527 -1.626,-0.985c-1.911,-1.826 -2.546,-4.359 -2.867,-6.856c-0.069,-0.6 -0.069,-1.233 -0.069,-1.832c0,-0.665 0.034,-1.332 0.14,-2.04c0.178,-1.301 0.426,-2.528 1.097,-3.69c0.531,-0.878 1.203,-1.583 2.087,-2.04c1.027,-0.493 2.228,-0.526 3.324,-0.175Zm-70.733,30.522c-0.849,-0.069 -1.699,-0.351 -2.125,-1.121c-0.352,-0.6 -0.388,-1.269 -0.209,-1.903c0.243,-0.806 1.024,-1.37 1.837,-1.475c0.885,-0.107 1.768,0.35 2.618,-0.143c0.672,-0.351 1.026,-1.052 1.344,-1.721c0.705,-1.477 1.415,-2.922 1.946,-4.465c0.107,-0.283 0.141,-0.564 0.141,-0.844c-0.034,-0.389 -0.106,-0.809 -0.247,-1.197c-1.699,-4.96 -3.324,-9.778 -5.198,-14.664c-0.146,-0.387 -0.357,-0.81 -0.638,-1.163c-0.46,-0.524 -1.132,-0.631 -1.734,-0.913c-0.177,-0.105 -0.282,-0.281 -0.248,-0.493c0.071,-0.138 0.107,-0.245 0.248,-0.314c0.249,-0.106 0.531,-0.144 0.815,-0.144c2.476,-0.031 4.952,0.176 7.461,-0.031c0.284,-0.037 0.604,-0.037 0.885,0.138c0.318,0.213 0.14,0.707 -0.176,0.844c-0.814,0.282 -2.017,0.282 -2.265,1.302c-0.035,0.244 -0.035,0.525 0.036,0.774c0.53,1.827 1.168,3.48 1.804,5.275c0.53,1.581 1.059,3.164 1.664,4.747c0.068,0.138 0.28,0.213 0.424,0.107c0.246,-0.25 0.319,-0.563 0.494,-0.844c0.281,-0.6 0.495,-1.232 0.778,-1.865c0.637,-1.476 1.274,-2.952 1.909,-4.429c0.425,-1.019 0.991,-2.039 0.956,-3.166c0,-0.175 -0.035,-0.388 -0.069,-0.599c-0.037,-0.176 -0.144,-0.32 -0.215,-0.457c-0.176,-0.244 -0.426,-0.35 -0.672,-0.494c-0.387,-0.176 -0.777,-0.176 -1.166,-0.313c-0.212,-0.107 -0.353,-0.319 -0.318,-0.564c0.034,-0.143 0.106,-0.249 0.246,-0.318c0.107,-0.032 0.248,-0.069 0.353,-0.069c1.204,-0.038 2.407,-0.038 3.61,0.069c0.884,0.069 1.803,-0.212 2.579,0.175c0.32,0.143 0.107,0.638 -0.211,0.775c-0.74,0.283 -1.415,0.67 -1.873,1.37c-0.495,0.776 -0.776,1.552 -1.133,2.321c-1.518,3.235 -3.112,6.295 -4.456,9.566c-0.706,1.794 -1.343,3.589 -2.087,5.379c-1.131,2.604 -2.334,5.068 -3.43,7.67c-0.248,0.594 -0.426,1.232 -0.672,1.826c-0.142,0.351 -0.353,0.632 -0.673,0.882c-0.708,0.489 -1.52,0.563 -2.333,0.489Zm-54.118,-12.481c-2.759,-0.132 -5.484,-0.038 -8.243,0.032c-0.068,0 -0.177,-0.032 -0.247,-0.07c-0.141,-0.068 -0.178,-0.244 -0.213,-0.385c-0.033,-0.283 0.106,-0.527 0.355,-0.597c0.849,-0.281 1.696,-0.175 2.546,-0.425c0.744,-0.175 1.236,-0.737 1.45,-1.439c0.071,-0.25 0.037,-0.458 0.037,-0.708c0.034,-7.905 0.14,-15.82 -0.037,-23.769c-0.034,-0.737 -0.422,-1.512 -1.166,-1.789c-0.781,-0.25 -1.591,-0.25 -2.368,-0.495c-0.217,-0.068 -0.217,-0.388 -0.145,-0.632c0.107,-0.212 0.356,-0.281 0.567,-0.281c2.335,-0.175 4.634,0.069 6.932,0.031c2.688,-0.031 5.413,-0.105 8.1,-0.068c1.308,0 2.619,-0.107 3.926,0.211c0.388,0.107 0.461,0.565 0.388,0.916c-0.318,1.689 -0.105,3.339 -0.246,4.991c0,0.32 0.072,0.707 -0.284,0.813c-0.247,0.101 -0.601,0.067 -0.635,-0.182c-0.318,-1.965 -1.203,-3.828 -3.005,-4.673c-2.159,-1.019 -4.566,-0.844 -6.9,-0.425c-0.388,0.071 -0.637,0.425 -0.777,0.776c-0.108,0.281 -0.108,0.564 -0.142,0.844c-0.213,2.917 -0.143,5.8 -0.072,8.721c0,0.562 0.038,1.37 0.71,1.544c1.485,0.388 2.935,0.426 4.42,0c1.592,-0.419 2.298,-1.964 2.902,-3.371c0.105,-0.25 0.28,-0.495 0.6,-0.563c0.142,0 0.318,0.032 0.423,0.137c0.108,0.144 0.108,0.35 0.108,0.532c-0.072,1.894 -0.213,3.828 -0.108,5.729c0,0.563 0.108,1.09 0.108,1.653c0,0.526 0.034,1.088 -0.176,1.582c-0.071,0.106 -0.213,0.175 -0.319,0.175c-0.777,0 -0.816,-1.019 -1.028,-1.613c-0.281,-0.813 -0.706,-1.477 -1.411,-2.01c-0.426,-0.28 -0.851,-0.419 -1.348,-0.525c-1.448,-0.213 -2.861,-0.319 -4.243,0.106c-0.566,0.175 -0.638,0.877 -0.638,1.408c-0.071,3.372 -0.141,6.75 0,10.128c0.038,0.876 0.745,1.546 1.557,1.932c1.028,0.458 2.159,0.388 3.22,0.771c0.283,0.142 0.46,0.426 0.424,0.738c0,0.107 -0.036,0.25 -0.141,0.319c-0.141,0.069 -0.247,0.106 -0.388,0.106c-1.486,0 -3.01,-0.106 -4.493,-0.175Zm98.47,0c-0.352,0.015 -0.671,-0.069 -1.024,-0.038c-0.85,0.038 -1.698,-0.068 -2.547,0.07c-0.705,0.075 -1.379,0.212 -2.086,0.143c-0.14,0 -0.283,0.03 -0.388,-0.068c-0.144,-0.107 -0.179,-0.25 -0.179,-0.389c0,-0.35 0.284,-0.6 0.602,-0.668c0.848,-0.214 1.805,-0.421 2.124,-1.339c0.105,-0.382 0.174,-0.807 0.174,-1.195c-0.034,-7.807 -0.034,-15.576 -0.069,-23.383c0,-0.807 -0.78,-1.195 -1.557,-1.37c-0.248,-0.037 -0.461,-0.25 -0.495,-0.494c0,-0.176 0.071,-0.35 0.211,-0.493c0.248,-0.176 0.566,-0.244 0.851,-0.314c0.634,-0.213 1.273,-0.319 1.91,-0.53c0.953,-0.316 1.768,-0.77 2.758,-1.02c0.175,-0.033 0.32,0 0.493,0.037c0.286,0.106 0.214,0.387 0.214,0.599c0,0.563 -0.106,1.127 -0.179,1.721c-0.103,1.087 -0.069,2.144 -0.069,3.233c-0.034,3.872 -0.034,7.739 0.034,11.606c0.035,0.95 -0.14,1.899 0.073,2.851c0.071,0.138 0.213,0.28 0.392,0.245c0.351,-0.07 0.634,-0.282 0.952,-0.495c1.627,-1.195 3.147,-2.177 4.632,-3.517c0.426,-0.386 1.025,-0.875 0.746,-1.438c-0.248,-0.531 -0.923,-0.636 -1.382,-0.987c-0.177,-0.176 -0.177,-0.388 -0.036,-0.596c0.176,-0.25 0.427,-0.212 0.672,-0.212c1.558,-0.106 3.079,0.138 4.636,0.069c0.813,-0.032 1.627,-0.107 2.439,-0.107c0.285,0 0.637,0.176 0.529,0.531c-0.103,0.245 -0.389,0.389 -0.6,0.458c-2.546,0.944 -4.67,2.352 -7.004,3.865c-0.496,0.351 -0.955,0.633 -1.273,1.126c-0.39,0.527 0.073,1.021 0.391,1.439c2.049,2.64 3.961,4.999 6.19,7.426c0.672,0.701 1.341,1.333 2.193,1.789c0.532,0.281 1.062,0.388 1.589,0.708c0.247,0.175 0.357,0.455 0.247,0.737c-0.139,0.282 -0.46,0.315 -0.705,0.282c-3.078,-0.32 -6.084,-0.213 -9.128,-0.144c-0.281,0 -0.704,0.037 -0.739,-0.314c-0.038,-0.636 0.739,-0.738 1.27,-0.881c0.319,-0.107 0.603,-0.281 0.676,-0.631c0.035,-0.283 -0.073,-0.564 -0.249,-0.777c-1.876,-2.352 -3.573,-4.534 -5.591,-6.748c-0.104,-0.071 -0.175,-0.178 -0.319,-0.214c-0.21,0 -0.422,0.07 -0.528,0.249c-0.073,0.106 -0.038,0.283 -0.038,0.382c0,2.041 -0.069,4.047 0.038,6.088c0,0.388 0.213,0.776 0.528,1.057c0.531,0.418 1.276,0.456 1.698,1.019c0.107,0.175 0.037,0.421 -0.139,0.563c-0.145,0.069 -0.283,0.101 -0.425,0.101c-0.849,0.075 -1.662,-0.07 -2.513,-0.032Z" style="fill:#2e3092;fill-rule:nonzero;"/></g></svg>