<?xml version="1.0" encoding="UTF-8" standalone="no"?>
<!DOCTYPE svg PUBLIC "-//W3C//DTD SVG 1.1//EN" "http://www.w3.org/Graphics/SVG/1.1/DTD/svg11.dtd">
<svg width="100%" height="100%" viewBox="0 0 2654 1244" version="1.1" xmlns="http://www.w3.org/2000/svg" xmlns:xlink="http://www.w3.org/1999/xlink" xml:space="preserve" xmlns:serif="http://www.serif.com/" style="fill-rule:evenodd;clip-rule:evenodd;stroke-linejoin:round;stroke-miterlimit:2;">
    <g id="ページ1" transform="matrix(3.152282,0,0,2.088639,0,0)">
        <rect x="0" y="0" width="841.89" height="595.276" style="fill:none;"/>
        <g id="レイヤー-1" serif:id="レイヤー 1" transform="matrix(1.321794,0,0,1.99492,-144.339862,-239.39034)">
            <g transform="matrix(1,0,0,1,441.0509,239.0138)">
                <path d="M0,-5.528C0.155,-5.79 6.259,-7.719 9.44,-9.648C12.622,-11.578 17.942,-16.197 18.776,-17.174C19.611,-18.15 20.706,-17.941 22.323,-17.941C23.94,-17.941 25.464,-19.089 26.71,-19.662C27.956,-20.236 32.181,-21.749 32.389,-21.749C32.598,-21.749 35.414,-21.123 35.884,-20.132C36.353,-19.141 37.292,-17.837 40.056,-15.438C42.821,-13.039 45.525,-10.9 46.077,-9.648C46.628,-8.397 46.308,-8.24 46.077,-6.415C45.846,-4.589 44.385,0.522 41.986,2.765C39.587,5.008 37.452,8.659 35.546,9.128C33.641,9.597 33.328,9.441 30.094,9.65C26.861,9.858 26.809,9.18 25.974,10.223C25.14,11.266 25.14,10.693 24.462,12.362C23.783,14.031 23.94,15.074 22.323,15.335C20.706,15.596 17.629,16.221 13.978,15.648C10.327,15.074 7.041,15.23 5.633,13.353C4.225,11.475 2.608,10.275 1.773,6.729C0.939,3.182 -0.261,-0.521 -0.261,-2.294C-0.261,-4.068 -0.678,-4.381 0,-5.528" style="fill:white;fill-rule:nonzero;"/>
            </g>
            <g transform="matrix(1,0,0,1,566.5283,362.7128)">
                <path d="M0,-5.528C0.155,-5.79 6.259,-7.719 9.44,-9.648C12.622,-11.578 17.942,-16.197 18.776,-17.174C19.611,-18.15 20.706,-17.941 22.323,-17.941C23.94,-17.941 25.464,-19.089 26.71,-19.662C27.956,-20.236 32.181,-21.749 32.389,-21.749C32.598,-21.749 35.414,-21.123 35.884,-20.132C36.353,-19.141 37.292,-17.837 40.056,-15.438C42.821,-13.039 45.525,-10.9 46.077,-9.648C46.628,-8.397 46.307,-8.24 46.077,-6.415C45.846,-4.589 44.385,0.522 41.986,2.765C39.587,5.008 37.452,8.659 35.546,9.128C33.641,9.597 33.328,9.441 30.094,9.65C26.861,9.858 26.809,9.18 25.974,10.223C25.14,11.266 25.14,10.693 24.461,12.362C23.783,14.031 23.94,15.074 22.323,15.335C20.706,15.595 17.629,16.221 13.978,15.648C10.327,15.074 7.041,15.23 5.633,13.353C4.225,11.475 2.608,10.275 1.773,6.729C0.939,3.182 -0.261,-0.521 -0.261,-2.294C-0.261,-4.068 -0.678,-4.381 0,-5.528" style="fill:white;fill-rule:nonzero;"/>
            </g>
            <g transform="matrix(1,0,0,1,364.9549,163.9893)">
                <path d="M0,38.947C-1.468,39.053 -1.215,39.254 -3.095,38.386C-4.976,37.517 -17.105,33.017 -17.381,28.739C-17.656,24.461 -21.94,16.629 -20.42,13.227C-18.901,9.825 -17.079,8.174 -15.453,7.272C-13.827,6.37 -13.276,4.118 -12.387,5.266C-11.497,6.413 -9.106,7.544 -9.106,7.544L-7.582,3.962L-7.212,3.028L-5.502,1.524L-5.222,4.928L-3.606,1.524C-3.606,1.524 -2.503,-0.307 -2.005,0.03C-1.507,0.368 0.295,0.46 0,1.55C-0.295,2.641 0.841,4.759 0.841,4.759C0.841,4.759 1.951,2.243 2.992,2.395C4.034,2.546 4.59,2.395 4.59,2.395C4.59,2.395 6.021,1.213 6.057,3.408C6.092,5.603 8.164,11.15 8.164,11.15L10.27,7.544L17.407,7.544L19.602,13.227L18.927,20.513L14.866,30.258L10.27,33.177L2.902,37.926C2.902,37.926 1.823,38.815 0,38.947" style="fill:white;fill-rule:nonzero;"/>
            </g>
            <g transform="matrix(1,0,0,1,490.2896,288.1027)">
                <path d="M0,38.947C-1.468,39.053 -1.215,39.254 -3.095,38.386C-4.976,37.517 -17.105,33.017 -17.381,28.739C-17.656,24.461 -21.94,16.629 -20.42,13.227C-18.901,9.825 -17.079,8.174 -15.453,7.272C-13.827,6.37 -13.276,4.118 -12.387,5.266C-11.497,6.413 -9.106,7.544 -9.106,7.544L-7.582,3.962L-7.212,3.028L-5.502,1.524L-5.222,4.928L-3.606,1.524C-3.606,1.524 -2.503,-0.307 -2.005,0.03C-1.507,0.368 0.295,0.46 0,1.55C-0.295,2.641 0.841,4.759 0.841,4.759C0.841,4.759 1.951,2.243 2.992,2.395C4.034,2.546 4.59,2.395 4.59,2.395C4.59,2.395 6.021,1.213 6.057,3.408C6.092,5.603 8.164,11.15 8.164,11.15L10.27,7.544L17.407,7.544L19.602,13.227L18.927,20.513L14.866,30.258L10.27,33.177L2.902,37.926C2.902,37.926 1.823,38.815 0,38.947" style="fill:white;fill-rule:nonzero;"/>
            </g>
            <g transform="matrix(1,0,0,1,333.9247,194.3014)">
                <path d="M0,46.73C-0.122,49.658 -0.244,56.369 -0.854,57.955C-1.464,59.541 -0.732,60.029 -3.294,60.029C-5.857,60.029 -27.331,58.687 -33.431,58.565C-39.532,58.443 -52.343,57.589 -52.343,57.589C-52.343,57.589 -53.319,57.833 -53.319,55.149C-53.319,52.465 -54.006,28.874 -52.953,16.471C-52.953,16.471 -51.93,-9.518 -52.052,-11.226C-52.052,-11.226 -50.879,-12.202 -47.341,-12.202C-43.802,-12.202 -41.484,-11.348 -37.214,-11.592C-32.943,-11.836 -28.551,-12.324 -28.551,-12.324C-28.551,-12.324 -29.039,-1.587 -29.771,6.344C-30.503,14.275 -31.845,29.526 -31.845,29.526L-33.309,41.362C-33.309,41.362 -34.163,43.314 -30.991,43.314C-27.819,43.314 -14.153,43.802 -11.591,43.924C-9.029,44.046 -2.562,44.412 -1.83,44.412C-1.098,44.412 0.122,43.802 0,46.73M-13.299,40.019C-17.936,39.775 -29.283,40.507 -29.283,40.507L-26.721,9.516C-26.721,9.516 -25.501,-10.982 -25.379,-13.91C-25.257,-16.838 -27.819,-15.862 -30.015,-15.74C-32.211,-15.618 -37.946,-15.374 -40.264,-15.374C-42.582,-15.374 -48.439,-16.106 -54.295,-14.642C-54.295,-14.642 -55.271,-11.836 -55.271,-9.884C-55.271,-7.931 -56.492,9.882 -56.858,16.105C-57.224,22.328 -57.59,45.998 -57.468,53.807C-57.346,61.615 -54.661,61.005 -51.001,61.005C-47.341,61.005 -41.606,61.493 -41.606,61.493C-41.606,61.493 -2.928,63.568 -0.244,63.324C2.44,63.08 3.05,57.467 3.05,57.467C3.05,57.467 4.636,43.436 2.684,41.728C0.732,40.019 -8.663,40.263 -13.299,40.019" style="fill:rgb(36,25,22);fill-rule:nonzero;"/>
            </g>
            <g transform="matrix(1,0,0,1,405.4476,175.8511)">
                <path d="M0,67.765C-1.737,69.124 -10.494,74.299 -13.518,75.393C-17.068,76.677 -22.732,76.526 -24.016,75.997C-25.3,75.468 -27.49,69.88 -27.717,68.898C-27.943,67.916 -33.003,53.793 -33.003,53.793L-37.912,40.728C-37.912,40.728 -39.725,35.064 -39.649,32.647C-39.574,30.231 -39.498,29.929 -39.498,29.929C-39.498,29.929 -31.04,23.736 -29.303,22.905C-27.566,22.074 -25.375,21.017 -24.167,21.395C-22.959,21.772 -22.883,22.074 -21.146,21.772C-21.146,21.772 -20.013,22.527 -19.485,23.66C-18.956,24.793 -18.503,26.077 -18.503,26.077C-18.503,26.077 -20.089,25.02 -26.735,27.663C-33.381,30.306 -35.722,31.666 -35.42,32.496C-35.118,33.327 -29.529,31.363 -29.529,31.363C-29.529,31.363 -22.052,29.702 -20.769,29.551C-19.485,29.4 -17.899,27.512 -17.899,27.512C-17.899,27.512 -14.274,36.65 -12.31,40.502C-10.347,44.353 -8.232,47.978 -7.25,50.848C-6.268,53.718 -5.135,59.08 -1.964,62.856C1.208,66.632 1.737,66.406 0,67.765M0.506,57.114C-0.86,55.064 -4.003,49.256 -4.481,47.616C-4.96,45.976 -7.83,41.672 -8.786,39.622C-9.743,37.572 -12.271,30.944 -12.817,29.441C-13.364,27.938 -15.755,22.882 -16.985,22.403C-18.215,21.925 -18.489,20.832 -19.65,19.602C-20.812,18.372 -24.091,17.757 -24.091,17.757C-24.091,17.757 -20.47,12.359 -20.402,11.676C-20.333,10.993 -17.6,5.8 -18.762,0.334C-19.923,-5.133 -23.818,-6.226 -27.234,-6.499C-30.651,-6.772 -32.222,-4.449 -32.222,-4.449C-32.564,-7.661 -33.794,-11.282 -35.297,-11.487C-36.8,-11.692 -38.987,-9.096 -38.987,-9.096C-38.987,-9.096 -39.533,-12.58 -42.062,-12.58C-44.59,-12.58 -45.41,-9.027 -45.41,-9.027C-45.41,-9.027 -46.025,-11.419 -47.391,-11.009C-49.585,-10.351 -49.987,-5.748 -50.056,-6.294C-50.124,-6.841 -52.037,-8.891 -56.274,-7.866C-60.51,-6.841 -62.44,-1.8 -62.815,7.319C-63.19,16.438 -53.696,23.237 -53.696,23.237C-51.322,24.986 -44.055,27.581 -43.328,25.682C-42.817,24.349 -44.863,23.257 -46.981,22.438C-49.099,21.618 -51.491,20.319 -55.454,16.493C-59.417,12.667 -59.28,8.294 -58.938,3.716C-58.597,-0.862 -57.094,-5.03 -53.951,-5.577C-50.807,-6.123 -50.534,-3.664 -50.329,-2.434C-50.124,-1.204 -50.124,0.231 -49.373,0.231C-48.621,0.231 -48.689,-0.52 -48.689,-1.34C-48.689,-2.16 -48.758,-5.303 -48.074,-7.9C-47.391,-10.496 -46.366,-8.31 -46.161,-7.695C-45.956,-7.08 -45.751,-4.21 -44.795,-4.21C-43.838,-4.21 -44.248,-4.893 -44.248,-6.123C-44.248,-7.353 -44.385,-10.428 -42.198,-10.77C-40.012,-11.111 -41.173,-6.67 -40.148,-6.397C-39.123,-6.123 -39.465,-5.85 -37.415,-8.378C-35.365,-10.906 -35.297,-8.446 -35.365,-7.285C-35.434,-6.123 -34.614,-1.682 -34.614,-1.682C-34.614,-1.682 -34.887,-0.042 -35.639,2.076C-36.39,4.194 -35.98,7.064 -34.272,7.064C-32.564,7.064 -32.359,4.467 -32.359,4.467C-32.359,4.467 -31.539,-2.57 -27.098,-2.775C-22.657,-2.98 -21.973,2.281 -22.247,5.356C-22.52,8.43 -25.116,12.872 -26.961,15.195C-28.806,17.518 -29.148,18.611 -29.148,18.611C-29.148,18.611 -30.378,19.431 -31.539,19.978C-32.701,20.524 -39.397,25.376 -41.652,27.015C-43.435,28.312 -43.496,28.826 -43.701,31.354C-43.906,33.882 -43.086,37.64 -43.086,37.64L-36.322,56.089C-36.322,56.089 -30.651,72.282 -30.378,73.307C-30.104,74.332 -28.874,75.699 -28.669,77.407C-28.464,79.115 -27.166,79.525 -21.905,79.935C-16.644,80.345 -11.451,78.568 -9.264,77.748C-7.078,76.929 0.438,71.736 2.146,70.916C3.854,70.096 3.24,69.891 4.811,67.978C6.383,66.064 5.289,63.878 5.289,63.878C5.289,63.878 1.873,59.163 0.506,57.114" style="fill:rgb(36,25,22);fill-rule:nonzero;"/>
            </g>
            <g transform="matrix(1,0,0,1,364.8893,178.8158)">
                <path d="M0,-5.74C-0.478,-6.628 -2.118,-5.808 -4.988,-3.28C-7.858,-0.752 -7.038,0.546 -7.038,0.546C-6.15,0.888 -6.491,0.614 -6.15,0C-5.808,-0.615 -4.236,-1.572 -3.006,-2.324C-1.777,-3.075 0.478,-4.852 0,-5.74" style="fill:rgb(36,25,22);fill-rule:nonzero;"/>
            </g>
            <g transform="matrix(1,0,0,1,332.0767,154.3947)">
                <path d="M0,-7.105C-0.991,-8.03 -2.512,-11.137 -4.825,-9.022C-7.138,-6.907 -0.727,-2.743 0.793,-1.751C2.313,-0.76 7.217,4.032 7.601,3.007C7.997,1.95 6.94,0.628 5.486,-1.024C4.032,-2.677 0.991,-6.18 0,-7.105" style="fill:rgb(36,25,22);fill-rule:nonzero;"/>
            </g>
            <g transform="matrix(1,0,0,1,354.6149,141.5395)">
                <path d="M0,11.897C0.925,12.095 0.925,11.038 1.057,10.509C1.19,9.98 1.454,7.733 1.718,6.213C1.983,4.693 2.842,-0.198 0.132,0.132C-2.578,0.463 -2.049,3.833 -1.917,5.618C-1.785,7.403 -1.465,11.583 0,11.897" style="fill:rgb(36,25,22);fill-rule:nonzero;"/>
            </g>
            <g transform="matrix(1,0,0,1,371.4028,147.8847)">
                <path d="M0,0.793C0,0.793 0.595,-1.52 2.445,-0.066C4.296,1.388 4.032,2.578 3.106,3.238C2.181,3.899 1.124,4.23 0.264,3.833C-0.595,3.437 -0.529,1.85 0,0.793M3.9,6.675C5.023,6.081 11.104,0.33 11.104,0.33C11.104,0.33 12.558,-1.322 13.417,-1.322C14.276,-1.322 16.061,0.463 16.391,2.445C16.722,4.428 15.069,3.966 15.532,5.42C15.995,6.874 16.986,5.948 18.374,4.626C19.762,3.305 20.291,1.19 20.291,0.066C20.291,-1.058 19.432,-4.362 17.978,-4.825C16.524,-5.288 17.185,-5.552 16.061,-6.147C14.937,-6.742 14.871,-6.742 12.822,-5.684C10.773,-4.627 5.75,0.33 5.75,0.33C5.354,0.661 5.089,0.463 5.089,0.463C5.089,0.463 5.089,-1.586 2.974,-2.71C0.859,-3.834 -0.264,-2.842 -1.057,-2.446C-1.851,-2.049 -4.759,2.379 -2.776,4.957C-0.793,7.535 2.776,7.27 3.9,6.675" style="fill:rgb(36,25,22);fill-rule:nonzero;"/>
            </g>
            <g transform="matrix(1,0,0,1,440.4989,270.3566)">
                <path d="M0,0.793C0,0.793 0.595,-1.52 2.445,-0.066C4.296,1.388 4.032,2.578 3.106,3.238C2.181,3.899 1.124,4.23 0.264,3.833C-0.595,3.437 -0.529,1.851 0,0.793M3.9,6.675C5.023,6.081 11.104,0.33 11.104,0.33C11.104,0.33 12.558,-1.322 13.417,-1.322C14.276,-1.322 16.061,0.463 16.391,2.445C16.722,4.428 15.069,3.966 15.532,5.42C15.995,6.874 16.986,5.948 18.374,4.626C19.762,3.305 20.291,1.19 20.291,0.066C20.291,-1.058 19.432,-4.362 17.978,-4.825C16.524,-5.288 17.185,-5.552 16.061,-6.147C14.937,-6.742 14.871,-6.742 12.822,-5.684C10.773,-4.627 5.75,0.33 5.75,0.33C5.354,0.661 5.089,0.463 5.089,0.463C5.089,0.463 5.089,-1.586 2.974,-2.71C0.859,-3.834 -0.264,-2.842 -1.057,-2.446C-1.851,-2.049 -4.759,2.379 -2.776,4.957C-0.793,7.535 2.776,7.27 3.9,6.675" style="fill:rgb(36,25,22);fill-rule:nonzero;"/>
            </g>
            <g transform="matrix(1,0,0,1,511.3981,236.1766)">
                <path d="M0,-38.931C-0.781,-38.45 -2.585,-36.106 -3.366,-34.723C-4.148,-33.341 -10.82,-21.139 -11.301,-19.756C-12.406,-16.578 -15.689,-10.018 -16.65,-8.696C-17.612,-7.374 -19.295,-7.794 -20.076,-7.855C-20.858,-7.915 -22.12,-8.696 -22.481,-9.057C-22.841,-9.417 -23.984,-10.62 -23.984,-10.62C-23.984,-10.62 -26.749,-12.243 -29.033,-13.865C-31.317,-15.488 -32.82,-17.893 -32.82,-17.893C-32.82,-17.893 -32.098,-18.013 -31.798,-18.674C-31.497,-19.335 -31.738,-20.117 -31.738,-20.117L-30.656,-21.439C-29.814,-20.658 -24.645,-18.193 -22.962,-17.412C-21.279,-16.63 -19.355,-16.21 -18.934,-17.232C-18.514,-18.253 -19.596,-19.035 -21.339,-19.936C-23.082,-20.838 -26.869,-22.461 -28.612,-22.942C-30.355,-23.423 -29.514,-23.483 -29.514,-23.483C-29.514,-23.483 -27.831,-26.368 -26.929,-27.931C-26.027,-29.494 -25.186,-30.936 -22.481,-37.549C-19.776,-44.161 -17.612,-51.674 -17.612,-51.674L-13.044,-49.21C-13.044,-49.21 -1.923,-42.538 -0.361,-41.696C1.202,-40.855 0.781,-39.412 0,-38.931M-30.325,5.03C-35.6,11.226 -34.763,11.226 -37.609,11.226C-40.456,11.226 -42.047,11.058 -42.047,11.058L-42.884,11.561C-42.884,11.561 -43.051,10.64 -43.637,9.802C-43.637,9.802 -41.293,11.142 -39.87,9.049C-38.447,6.956 -39.367,5.951 -39.367,5.951C-39.367,5.951 -37.609,6.788 -36.688,4.277C-35.767,1.765 -38.781,-0.663 -39.451,-0.998C-40.121,-1.333 -41.963,-2.17 -41.963,-2.17L-39.451,-2.589C-39.451,-2.589 -37.86,-0.998 -36.688,-2.421C-35.516,-3.845 -35.516,-6.189 -35.516,-7.529C-35.516,-8.868 -35.687,-11.098 -37.107,-12.636C-38.112,-13.724 -40.707,-15.064 -41.544,-15.064L-37.107,-17.576C-37.107,-17.576 -33.59,-12.133 -31.414,-10.794C-29.237,-9.454 -24.381,-5.436 -24.381,-5.436C-24.381,-5.436 -25.051,-1.166 -30.325,5.03M-45.411,6.563C-45.411,6.563 -46.952,5.692 -47.287,6.63C-47.621,7.567 -46.751,8.84 -46.349,9.51C-45.947,10.18 -45.277,11.05 -45.277,12.122C-45.277,13.194 -45.344,12.256 -46.751,11.519C-48.157,10.783 -49.229,10.783 -49.966,10.649C-50.703,10.515 -51.841,10.113 -52.042,11.117C-52.243,12.122 -48.961,13.931 -48.224,13.931C-47.487,13.931 -46.818,14.4 -46.818,14.4C-46.818,14.4 -47.153,17.079 -48.559,17.146C-48.559,17.146 -53.114,16.61 -55.66,16.61C-58.205,16.61 -63.162,16.476 -65.305,12.993C-67.449,9.51 -69.324,0.065 -69.257,-1.208C-69.257,-1.208 -61.281,-3.583 -57.133,-6.901C-52.109,-10.92 -49.698,-13.533 -49.631,-14.336L-39.717,-10.518L-39.315,-5.093C-39.315,-5.093 -39.248,-4.155 -40.253,-4.155C-41.258,-4.155 -43.267,-4.624 -44.205,-4.892C-45.143,-5.16 -46.483,-4.825 -45.88,-2.547C-45.277,-0.27 -42.799,0.802 -42.129,1.003C-41.459,1.204 -38.173,2.403 -38.847,3.749C-39.181,4.419 -41.124,2.878 -41.995,2.878C-42.866,2.878 -44.473,2.61 -44.473,3.682C-44.473,4.754 -44.004,5.357 -43,5.357C-41.995,5.357 -40.856,6.63 -41.392,7.768C-41.928,8.907 -45.411,6.563 -45.411,6.563M-72.281,-5.53C-73.739,-7.987 -77.886,-12.44 -78.961,-15.434C-80.035,-18.429 -82.492,-26.798 -83.26,-30.56C-84.028,-34.323 -86.946,-46.147 -87.023,-48.757C-87.023,-48.757 -83.798,-48.911 -81.034,-49.909C-78.27,-50.907 -65.524,-55.13 -65.524,-55.13L-63.067,-52.597C-63.067,-52.597 -61.838,-51.675 -62.453,-46.684C-63.067,-41.694 -63.364,-37.536 -62.453,-33.708C-61.301,-28.871 -58.69,-25.109 -56.464,-21.73C-56.464,-21.73 -55.849,-20.502 -57.078,-19.35C-58.306,-18.199 -64.679,-15.127 -66.368,-14.436C-68.058,-13.745 -69.824,-13.054 -69.363,-12.363C-68.902,-11.672 -61.762,-14.897 -60.072,-15.511C-58.383,-16.125 -55.158,-17.354 -55.082,-19.197C-55.082,-19.197 -53.93,-18.045 -53.546,-17.047C-53.162,-16.049 -52.778,-15.358 -52.778,-15.358C-52.778,-15.358 -57.462,-10.674 -62.069,-8.294C-66.676,-5.914 -69.824,-4.378 -69.824,-4.378C-69.824,-4.378 -70.822,-3.073 -72.281,-5.53M4.347,-41.233C4.347,-42.769 2.274,-44.458 1.353,-45.072C0.431,-45.686 -1.872,-46.761 -7.17,-50.216C-12.468,-53.671 -16.077,-54.977 -16.077,-54.977C-16.077,-54.977 -16.691,-55.898 -18.918,-56.128C-21.144,-56.359 -21.144,-53.671 -21.144,-53.671C-21.144,-53.671 -21.912,-51.598 -22.603,-48.681C-23.294,-45.763 -27.44,-36.396 -28.131,-34.169C-28.822,-31.942 -34.12,-21.5 -35.579,-21.5C-37.038,-21.5 -38.574,-20.963 -39.879,-20.425C-41.184,-19.888 -47.634,-16.356 -47.634,-16.356L-48.862,-16.893C-48.862,-17.968 -49.86,-18.199 -49.86,-18.199L-51.703,-21.116C-51.703,-21.116 -55.158,-25.953 -57.769,-31.328C-60.379,-36.703 -58.921,-40.312 -58.69,-44.995C-58.46,-49.679 -58.69,-51.445 -58.997,-52.827C-59.305,-54.209 -60.379,-55.361 -62.913,-57.587C-65.447,-59.814 -67.443,-58.662 -67.443,-58.662C-67.443,-58.662 -75.736,-56.128 -82.646,-53.518C-89.556,-50.907 -90.094,-51.522 -90.094,-51.522C-91.399,-51.598 -90.938,-49.448 -90.401,-45.917C-89.863,-42.385 -88.098,-35.321 -88.098,-35.321C-88.098,-35.321 -85.333,-23.113 -83.567,-17.431C-81.801,-11.749 -78.193,-6.528 -76.35,-4.762C-74.507,-2.996 -74.277,-1.46 -73.279,-0.923C-72.281,-0.385 -71.82,-0.462 -71.82,-0.462C-72.127,2.532 -71.282,8.521 -69.9,12.437C-68.518,16.353 -65.063,19.194 -60.456,20.039C-55.849,20.883 -48.862,20.499 -47.25,20.115C-45.638,19.731 -44.716,14.817 -44.716,14.817C-43.718,14.741 -42.95,13.359 -42.95,13.359C-42.566,14.203 -41.798,14.433 -40.416,14.433C-39.034,14.433 -36.424,14.126 -34.044,13.666C-31.663,13.205 -29.437,10.287 -27.978,8.061C-26.519,5.834 -24.983,2.609 -23.755,-0.385C-22.526,-3.38 -22.757,-4.839 -22.757,-4.839C-21.759,-4.378 -19.225,-3.917 -17.612,-4.148C-16,-4.378 -14.618,-5.453 -14.004,-6.144C-13.389,-6.835 -12.238,-8.601 -11.086,-10.674C-9.934,-12.747 -7.324,-18.966 -6.863,-20.272C-6.402,-21.577 -2.333,-28.103 -1.335,-30.637C-0.337,-33.171 1.353,-34.553 2.044,-35.398C2.735,-36.242 4.117,-37.24 4.347,-38.008C4.577,-38.776 4.347,-39.697 4.347,-41.233" style="fill:rgb(36,25,22);fill-rule:nonzero;"/>
            </g>
            <g transform="matrix(1,0,0,1,572.0381,174.7318)">
                <path d="M0,70.394C0,70.394 -4.075,70.496 -5.603,70.394C-7.131,70.292 -6.418,69.492 -12.734,68.982C-12.734,68.982 -23.431,68.458 -26.996,68.255C-30.562,68.051 -36.471,67.745 -36.471,67.745L-38.61,67.745C-38.61,67.745 -37.999,56.743 -37.999,54.604C-37.999,52.464 -37.897,33.414 -37.897,30.664C-37.897,27.913 -37.693,9.474 -37.693,9.474L-37.387,3.26C-37.387,3.26 -26.589,1.426 -21.801,1.12C-17.013,0.815 -8.557,0.713 -8.557,0.713L-3.769,0.407C-3.769,0.407 -3.566,6.316 -3.464,7.437C-3.362,8.557 -3.158,11.002 -3.158,11.002C-3.158,11.002 -10.799,10.798 -14.466,10.595C-18.133,10.391 -21.597,10.798 -21.597,10.798C-21.597,10.798 -23.227,10.085 -23.533,13.243C-23.838,16.401 -24.551,21.088 -24.551,22.514C-24.551,23.94 -24.755,26.894 -24.755,27.913C-24.755,28.932 -24.653,30.154 -22.412,29.747C-20.171,29.339 -11.715,29.237 -11.715,29.237L-4.38,28.932C-4.38,28.932 -4.075,34.84 -4.177,36.776C-4.279,38.712 -4.279,40.24 -4.279,40.24L-4.38,40.953C-4.38,40.953 -6.52,40.24 -9.78,40.24C-13.04,40.24 -19.152,40.036 -20.68,40.036C-22.208,40.036 -23.431,39.628 -23.736,41.36C-24.042,43.092 -24.755,45.333 -24.755,50.121C-24.755,54.909 -25.468,56.641 -23.125,56.539C-20.782,56.437 -15.485,56.03 -14.058,56.03C-12.632,56.03 -4.584,55.826 -3.464,55.826C-2.343,55.826 -1.019,55.622 -1.019,55.622C-1.019,55.622 -0.509,55.011 -0.407,56.641C-0.306,58.271 0.204,67.745 0.204,67.745L0,70.394ZM2.852,56.132L2.445,53.279C2.445,53.279 3.464,52.363 0.713,52.464C-2.037,52.566 -7.233,52.566 -9.984,52.566C-12.734,52.566 -15.587,52.363 -17.318,52.464C-19.05,52.566 -21.597,52.974 -21.597,52.974L-21.699,43.296C-21.699,43.296 -14.262,43.703 -12.734,43.398C-11.206,43.092 -7.131,43.092 -5.297,43.5C-3.464,43.907 -2.037,44.722 -1.222,42.073C-1.222,42.073 -1.121,36.165 -1.528,33.21C-1.936,30.256 -1.936,27.709 -1.936,27.709C-1.936,27.709 -1.936,26.079 -4.38,26.079C-6.826,26.079 -13.447,25.977 -13.447,25.977C-13.447,25.977 -14.873,26.181 -17.318,26.385C-19.763,26.589 -20.986,26.181 -20.986,26.181C-20.986,26.181 -21.19,23.838 -20.986,21.495C-20.782,19.152 -19.763,14.364 -19.763,14.364C-19.763,14.364 -14.873,14.058 -10.493,14.568C-6.112,15.077 -0.407,14.67 -0.407,14.67C-0.407,14.67 1.121,14.568 1.324,13.243C1.528,11.919 0.713,11.206 0.713,11.206C0.713,11.206 0.306,2.037 0.204,0.611C0.102,-0.815 -0.102,-3.056 -2.241,-3.158C-4.38,-3.26 -10.493,-3.158 -12.836,-2.954C-15.179,-2.751 -20.884,-2.547 -23.635,-2.241C-26.385,-1.936 -30.052,-1.63 -32.599,-1.223C-35.146,-0.815 -39.527,-0.51 -39.629,0.204C-39.629,0.204 -40.953,4.279 -41.462,16.911C-41.972,29.543 -41.666,47.167 -41.666,47.167C-41.666,47.167 -41.87,56.641 -41.87,60.207C-41.87,63.772 -43.296,69.477 -40.545,70.598C-40.545,70.598 -33.618,71.515 -32.701,71.515C-31.784,71.515 -22.514,72.126 -19.763,72.126C-17.013,72.126 -10.289,72.33 -9.169,72.33C-8.048,72.33 -4.992,72.941 -2.751,72.941C-0.509,72.941 2.343,73.654 2.954,69.477C3.566,65.3 2.852,56.132 2.852,56.132" style="fill:rgb(36,25,22);fill-rule:nonzero;"/>
            </g>
            <g transform="matrix(1,0,0,1,190.4848,379.1169)">
                <path d="M0,-84.227C-0.438,-80.722 -2.957,-63.526 -3.395,-60.898C-3.833,-58.269 -5.695,-46.002 -6.134,-40.744C-6.572,-35.487 -7.448,-25.301 -7.448,-19.386C-7.448,-13.472 -7.448,-13.801 -7.338,-10.953C-7.229,-8.105 -6.462,-3.395 -6.462,-3.395C-6.462,-3.395 -6.243,-3.067 -7.996,-1.752C-9.748,-0.438 -16.977,2.957 -19.277,3.833C-21.577,4.71 -22.891,4.819 -22.891,4.819C-22.891,4.819 -23.987,5.476 -24.425,2.848C-24.863,0.219 -26.287,-15.882 -25.739,-26.725C-25.191,-37.568 -24.972,-59.255 -24.315,-63.964C-23.658,-68.674 -23.439,-86.308 -22.563,-87.841C-22.563,-87.841 -11.391,-89.156 -9.31,-89.156C-7.229,-89.156 -0.876,-89.922 -0.876,-89.922C-0.876,-89.922 0.438,-87.732 0,-84.227M-3.614,-93.427C-5.805,-93.208 -12.377,-92.332 -16.867,-92.222C-21.358,-92.113 -26.068,-90.908 -26.068,-90.908C-26.944,-90.361 -28.039,-68.126 -28.039,-65.388C-28.039,-62.65 -29.266,-34.173 -29.266,-34.173C-29.376,-30.12 -29.244,-6.462 -29.244,-6.462C-29.244,-6.462 -28.915,3.286 -26.944,6.9C-24.972,10.515 -21.686,9.2 -19.496,8.653C-17.305,8.105 -15.115,7.01 -13.8,6.024C-12.486,5.038 -7.557,2.629 -4.929,1.095C-2.3,-0.438 -2.081,-1.095 -2.957,-6.462C-3.833,-11.829 -3.286,-11.5 -3.614,-16.977C-3.943,-22.453 -2.519,-37.02 -2.41,-38.773C-2.3,-40.525 -0.219,-57.612 0.329,-60.569C0.876,-63.526 2.957,-77.874 3.286,-81.27C3.614,-84.665 3.943,-87.513 2.848,-91.127C1.752,-94.742 -1.424,-93.646 -3.614,-93.427" style="fill:rgb(36,25,22);fill-rule:nonzero;"/>
            </g>
            <g transform="matrix(1,0,0,1,251.6014,368.9312)">
                <path d="M0,-57.393L-0.438,-41.183C-0.438,-41.183 -0.876,-22.125 -0.876,-19.168C-0.876,-16.21 -1.314,-0.658 -1.314,1.204C-1.314,3.066 -0.876,6.352 -0.876,6.352C-0.876,6.352 -5.586,5.695 -11.829,7.557C-18.072,9.419 -20.482,10.405 -20.482,10.405C-20.482,10.405 -24.425,3.724 -26.725,-4.162C-29.025,-12.048 -32.53,-23.549 -32.968,-24.425C-33.406,-25.301 -34.392,-28.149 -36.254,-25.192L-35.925,-12.267C-35.925,-12.267 -35.925,-1.424 -36.363,4.052C-36.801,9.529 -36.144,13.033 -36.144,13.033L-46.33,13.143C-46.33,13.143 -47.426,3.176 -47.426,-9.31C-47.426,-21.796 -47.535,-37.897 -46.002,-46.769C-44.468,-55.641 -44.03,-61.884 -44.03,-64.95C-44.03,-68.017 -42.606,-70.755 -42.606,-70.755L-25.739,-70.536C-25.739,-70.536 -26.177,-63.636 -25.63,-56.845C-25.082,-50.055 -24.863,-42.169 -24.096,-37.787C-23.329,-33.406 -22.015,-23.768 -18.948,-23.439C-15.882,-23.111 -16.758,-34.173 -16.758,-34.173C-16.758,-34.173 -14.677,-54.764 -14.567,-57.064C-14.458,-59.364 -13.253,-68.455 -14.02,-69.879C-14.02,-69.879 -3.833,-70.536 -1.533,-67.36C0.767,-64.184 0,-57.393 0,-57.393M-1.314,-71.632C-5.038,-74.479 -11.391,-73.713 -14.239,-73.384C-17.086,-73.056 -17.196,-71.413 -16.867,-70.317C-16.539,-69.222 -18.182,-59.693 -18.401,-57.831C-18.62,-55.969 -19.496,-29.354 -19.496,-29.354C-19.496,-29.354 -20.482,-39.211 -20.701,-42.169C-20.92,-45.126 -22.015,-59.474 -22.453,-64.403C-22.891,-69.332 -22.672,-70.098 -22.563,-72.508C-22.453,-74.917 -25.849,-74.698 -25.849,-74.698C-25.849,-74.698 -40.087,-74.479 -42.935,-74.37C-45.783,-74.26 -46.33,-71.851 -46.33,-71.851C-47.097,-70.317 -47.754,-65.717 -47.754,-63.417C-47.754,-61.117 -48.959,-50.493 -50.054,-43.921C-51.627,-34.482 -51.259,-16.868 -51.259,-11.829C-51.259,-6.791 -50.602,9.419 -50.273,13.472C-49.945,17.524 -47.754,16.757 -47.754,16.757C-47.754,16.757 -38.225,16.757 -35.597,16.538C-32.968,16.319 -33.406,13.691 -33.406,13.691C-33.406,13.691 -33.844,0.985 -34.063,-0.986C-34.282,-2.958 -34.063,-15.225 -34.063,-15.225C-34.063,-15.225 -32.092,-8.215 -31.763,-6.901C-31.435,-5.586 -26.396,8.214 -24.206,11.938C-22.015,15.662 -19.715,13.91 -19.715,13.91C-19.715,13.91 -17.963,13.033 -12.705,11.829C-7.448,10.624 -3.724,10.076 -0.219,9.967C3.286,9.857 2.629,6.9 2.629,6.9C2.629,6.9 2.738,6.133 2.738,4.162C2.738,2.19 2.848,-5.915 2.848,-9.42C2.848,-12.925 3.395,-28.368 3.395,-28.368L3.614,-47.535C3.614,-47.535 3.614,-59.255 3.286,-61.665C2.957,-64.074 2.41,-68.784 -1.314,-71.632" style="fill:rgb(36,25,22);fill-rule:nonzero;"/>
            </g>
            <g transform="matrix(1,0,0,1,304.4658,344.5341)">
                <path d="M0,-19.209C-0.183,-15.733 -0.549,-15.093 -2.927,-14.727C-5.305,-14.361 -10.702,-16.19 -10.702,-16.19C-10.702,-16.19 -9.795,-27.991 -14.178,-28.265C-17.105,-28.448 -18.66,-25.246 -18.66,-25.246C-19.118,-23.874 -21.405,-19.392 -21.953,-18.111C-22.502,-16.831 -24.423,-3.933 -24.332,0.823C-24.24,5.58 -21.039,9.605 -18.02,9.513C-15.001,9.422 -12.989,2.561 -12.44,0.915C-11.891,-0.732 -10.702,0.275 -10.702,0.275C-10.702,0.275 -5.946,2.379 -4.025,2.836C-2.104,3.293 -2.287,4.116 -2.287,4.116C-2.287,4.116 -2.012,5.306 -4.391,10.611C-6.769,15.916 -12.715,26.07 -16.831,29.088C-20.947,32.107 -26.801,30.369 -30.552,28.723C-34.302,27.076 -36.68,18.935 -37.321,13.813C-37.961,8.69 -36.68,-7.318 -35.766,-12.623C-34.851,-17.928 -31.467,-32.564 -27.899,-39.059C-24.332,-45.553 -20.947,-49.852 -14.453,-49.852C-7.958,-49.852 -3.567,-45.919 -2.104,-40.339C-0.64,-34.759 0.183,-22.685 0,-19.209M0.183,-44.821C-2.653,-50.767 -8.69,-53.511 -13.446,-53.694C-18.203,-53.877 -24.24,-52.322 -28.173,-46.01C-32.107,-39.699 -33.113,-37.778 -36.68,-25.429C-40.248,-13.08 -40.705,-1.555 -40.797,1.738C-40.888,5.031 -41.62,10.794 -40.614,16.282C-39.608,21.771 -37.504,28.357 -33.57,31.192C-29.637,34.028 -19.758,34.668 -17.929,34.119C-16.099,33.571 -12.574,30.849 -8.05,24.789C-2.927,17.929 0.549,7.958 1.006,6.586C2.377,2.475 1.372,1.372 -0.366,0.458C-0.366,0.458 -4.848,-2.012 -8.141,-2.287C-11.434,-2.561 -9.757,-3.031 -13.355,-3.75C-15.184,-4.116 -16.099,-0.183 -16.099,-0.183C-16.099,-0.183 -17.746,5.58 -18.477,5.306C-19.209,5.031 -20.673,4.025 -20.398,-1.28C-20.124,-6.586 -18.752,-15.642 -18.752,-15.642C-18.752,-15.642 -16.099,-23.874 -15.184,-24.057C-14.27,-24.24 -14.087,-21.038 -14.27,-18.569C-14.453,-16.099 -14.727,-13.904 -14.727,-13.904C-14.727,-13.904 -14.727,-12.257 -12.715,-12.257C-10.702,-12.257 -8.873,-11.708 -6.586,-11.434C-4.299,-11.159 -0.091,-10.153 2.012,-13.08C4.116,-16.007 3.933,-19.666 3.75,-24.24C3.567,-28.814 3.019,-38.876 0.183,-44.821" style="fill:rgb(36,25,22);fill-rule:nonzero;"/>
            </g>
            <g transform="matrix(1,0,0,1,350.5149,308.4846)">
                <path d="M0,59.706C-0.888,64.679 -2.131,68.497 -2.22,68.763C-2.309,69.029 -1.776,69.829 -4.706,70.095C-7.636,70.361 -21.488,71.427 -24.063,71.516C-26.638,71.604 -30.368,71.338 -30.368,71.338L-31.433,71.338C-31.433,71.338 -30.901,62.547 -30.812,60.594C-30.723,58.64 -30.368,42.125 -29.835,37.596C-29.302,33.068 -28.237,12.201 -28.237,9.182C-28.237,6.163 -26.905,-12.306 -26.461,-12.129C-26.461,-12.129 -22.021,-11.774 -18.292,-11.241C-14.562,-10.708 -11.898,-10.175 -10.478,-9.554C-10.478,-9.554 -11.454,-3.516 -12.165,-0.408C-12.875,2.7 -14.651,8.738 -15.539,14.51C-16.427,20.281 -17.493,29.249 -17.67,33.956C-17.848,38.662 -18.203,47.364 -18.203,47.364C-18.203,47.364 -19.624,52.958 -14.918,51.537C-10.211,50.116 -2.753,48.607 -1.066,48.34C0.622,48.074 2.575,48.074 2.575,48.074C2.575,48.074 0.888,54.733 0,59.706M4.61,44.355C4.61,44.355 2.277,44.249 -3.132,44.885C-8.54,45.522 -14.267,47.643 -14.267,47.643L-14.373,43.295C-14.373,43.295 -13.843,29.933 -12.782,22.085C-11.722,14.238 -9.495,3.951 -9.495,3.951C-9.495,3.951 -6.631,-7.29 -6.313,-10.153C-5.995,-13.017 -10.873,-13.865 -12.57,-14.077C-14.267,-14.289 -22.747,-15.464 -28.053,-15.562C-30.916,-15.615 -30.598,-14.024 -30.598,-12.433C-30.598,-10.843 -31.341,-1.564 -31.447,0.876C-31.553,3.315 -32.295,15.192 -32.295,17.737C-32.295,20.282 -33.461,34.281 -33.461,35.765C-33.461,37.25 -34.734,57.717 -34.734,57.717C-35.158,63.444 -34.387,66.151 -35.052,69.701C-36.007,74.791 -32.719,74.897 -32.719,74.897C-32.719,74.897 -27.417,75.321 -24.553,75.321C-21.69,75.321 -7.268,74.155 -4.192,74.049C-1.117,73.943 0.05,72.776 1.004,71.079C1.958,69.383 2.701,64.822 2.701,64.822C5.14,54.642 5.352,52.839 6.094,48.385C6.837,43.931 4.61,44.355 4.61,44.355" style="fill:rgb(36,25,22);fill-rule:nonzero;"/>
            </g>
            <g transform="matrix(1,0,0,1,401.5331,362.7044)">
                <path d="M0,-52.588C0.218,-50.406 -1.309,-35.131 -1.527,-30.44C-1.678,-27.212 -2.4,-14.838 -7.092,-2.619C-12.241,10.793 -20.075,12.656 -24.767,12.438C-29.458,12.22 -34.04,2.291 -35.35,-3.273C-36.659,-8.837 -36.986,-14.838 -36.986,-18.22C-36.986,-21.603 -36.55,-31.64 -36.55,-34.477C-36.55,-37.313 -34.695,-65.244 -34.695,-65.244C-33.822,-64.808 -31.64,-65.026 -29.24,-65.026C-26.839,-65.026 -22.257,-63.608 -22.257,-63.608C-22.257,-63.608 -23.348,-57.061 -23.785,-55.752C-24.221,-54.443 -26.839,-40.15 -27.276,-34.586C-27.712,-29.022 -27.494,-20.73 -25.312,-18.111C-23.13,-15.493 -21.275,-12.765 -18.438,-17.675C-15.602,-22.585 -15.056,-29.349 -14.074,-35.35C-13.092,-41.35 -13.42,-46.151 -12.983,-52.806C-12.547,-59.462 -12.22,-66.008 -12.22,-66.008C-12.22,-66.008 -9.601,-65.68 -7.965,-65.68C-6.328,-65.68 -1.091,-65.244 -1.091,-65.244L-0.327,-62.626C0.436,-60.007 -0.218,-54.77 0,-52.588M3.819,-50.624C3.71,-56.407 4.037,-63.389 2.4,-66.226C0.764,-69.063 0.109,-69.281 -2.291,-69.281C-4.691,-69.281 -8.51,-69.281 -10.474,-69.717C-12.438,-70.154 -15.602,-69.717 -15.929,-66.771C-16.256,-63.826 -16.911,-50.624 -16.911,-50.624C-16.911,-50.624 -17.457,-36.004 -18.548,-30.331C-19.639,-24.657 -20.73,-19.421 -21.603,-19.421C-22.475,-19.421 -24.439,-25.312 -23.457,-35.35C-22.475,-45.387 -20.839,-55.534 -20.621,-58.371C-20.402,-61.207 -18.766,-65.135 -18.766,-65.135C-18.766,-65.135 -18.984,-67.208 -21.493,-67.644C-24.003,-68.081 -28.803,-68.626 -30.876,-68.626C-32.949,-68.626 -35.131,-69.39 -36.113,-69.39C-37.095,-69.39 -37.859,-68.626 -37.859,-68.626C-37.859,-68.626 -38.514,-64.917 -38.732,-61.535C-38.95,-58.152 -40.15,-39.605 -40.15,-39.605C-40.15,-39.605 -40.587,-24.003 -40.587,-20.512C-40.587,-17.02 -41.896,-13.202 -38.95,-2.837C-36.004,7.528 -32.622,14.729 -25.421,16.147C-18.22,17.566 -10.801,12.22 -6.655,5.455C-2.509,-1.309 1.309,-18.548 1.746,-24.767C2.182,-30.985 3.928,-44.842 3.819,-50.624" style="fill:rgb(36,25,22);fill-rule:nonzero;"/>
            </g>
            <g transform="matrix(1,0,0,1,333.9247,195.2764)">
                <path d="M0,45.755C-0.122,48.683 -0.244,55.394 -0.854,56.98C-1.464,58.566 -0.732,59.054 -3.294,59.054C-5.857,59.054 -27.331,57.712 -33.431,57.59C-39.532,57.468 -52.343,56.614 -52.343,56.614C-52.343,56.614 -53.319,56.858 -53.319,54.174C-53.319,51.49 -54.006,27.899 -52.953,15.496C-52.953,15.496 -51.93,-10.493 -52.052,-12.201C-52.052,-12.201 -50.879,-13.177 -47.341,-13.177C-43.802,-13.177 -41.484,-12.323 -37.214,-12.567C-32.943,-12.811 -28.551,-13.299 -28.551,-13.299C-28.551,-13.299 -29.039,-2.562 -29.771,5.369C-30.503,13.3 -31.845,28.551 -31.845,28.551L-33.309,40.387C-33.309,40.387 -34.163,42.339 -30.991,42.339C-27.819,42.339 -14.153,42.827 -11.591,42.949C-9.029,43.071 -2.562,43.437 -1.83,43.437C-1.098,43.437 0.122,42.827 0,45.755" style="fill:white;fill-rule:nonzero;"/>
            </g>
            <g transform="matrix(1,0,0,1,405.4476,205.7801)">
                <path d="M0,37.836C-1.737,39.195 -10.494,44.37 -13.518,45.464C-17.068,46.748 -22.732,46.597 -24.016,46.068C-25.3,45.539 -27.49,39.951 -27.717,38.969C-27.943,37.987 -33.003,23.864 -33.003,23.864L-37.912,10.799C-37.912,10.799 -39.725,5.135 -39.649,2.718C-39.574,0.302 -39.498,0 -39.498,0C-39.498,0 -31.04,-6.193 -29.303,-7.024C-27.566,-7.855 -25.375,-8.912 -24.167,-8.534C-22.959,-8.157 -22.883,-7.855 -21.146,-8.157C-21.146,-8.157 -20.013,-7.402 -19.485,-6.269C-18.956,-5.136 -18.503,-3.852 -18.503,-3.852C-18.503,-3.852 -20.089,-4.909 -26.735,-2.266C-33.381,0.377 -35.722,1.737 -35.42,2.567C-35.118,3.398 -29.529,1.434 -29.529,1.434C-29.529,1.434 -22.052,-0.227 -20.769,-0.378C-19.485,-0.529 -17.899,-2.417 -17.899,-2.417C-17.899,-2.417 -14.274,6.721 -12.31,10.573C-10.347,14.424 -8.232,18.049 -7.25,20.919C-6.268,23.789 -5.135,29.151 -1.964,32.927C1.208,36.703 1.737,36.477 0,37.836" style="fill:white;fill-rule:nonzero;"/>
            </g>
            <g transform="matrix(1,0,0,1,439.1175,183.503)">
                <path d="M0,47.144C-1.459,44.687 -5.605,40.234 -6.68,37.239C-7.755,34.245 -10.212,25.876 -10.98,22.113C-11.748,18.351 -14.665,6.527 -14.742,3.916C-14.742,3.916 -11.517,3.763 -8.753,2.764C-5.989,1.766 6.757,-2.457 6.757,-2.457L9.214,0.077C9.214,0.077 10.442,0.998 9.828,5.989C9.214,10.98 8.917,15.138 9.828,18.965C10.98,23.803 13.59,27.565 15.817,30.943C15.817,30.943 16.431,32.172 15.203,33.323C13.974,34.475 7.601,37.546 5.912,38.237C4.223,38.928 2.457,39.619 2.918,40.31C3.378,41.001 10.519,37.777 12.208,37.162C13.897,36.548 17.122,35.32 17.199,33.477C17.199,33.477 18.351,34.629 18.735,35.627C19.118,36.625 19.502,37.316 19.502,37.316C19.502,37.316 14.819,42 10.212,44.38C5.605,46.76 2.457,48.296 2.457,48.296C2.457,48.296 1.459,49.601 0,47.144" style="fill:white;fill-rule:nonzero;"/>
            </g>
            <g transform="matrix(1,0,0,1,511.3981,216.0596)">
                <path d="M0,-18.814C-0.781,-18.333 -2.585,-15.989 -3.366,-14.606C-4.148,-13.224 -10.82,-1.022 -11.301,0.361C-12.406,3.539 -15.689,10.099 -16.65,11.421C-17.612,12.743 -19.295,12.323 -20.076,12.262C-20.858,12.202 -22.12,11.421 -22.481,11.06C-22.841,10.7 -23.984,9.497 -23.984,9.497C-23.984,9.497 -26.749,7.874 -29.033,6.252C-31.317,4.629 -32.82,2.224 -32.82,2.224C-32.82,2.224 -32.098,2.104 -31.798,1.443C-31.497,0.782 -31.738,-0 -31.738,-0L-30.656,-1.322C-29.814,-0.541 -24.645,1.924 -22.962,2.705C-21.279,3.487 -19.355,3.907 -18.934,2.885C-18.514,1.864 -19.596,1.082 -21.339,0.181C-23.082,-0.721 -26.869,-2.344 -28.612,-2.825C-30.355,-3.306 -29.514,-3.366 -29.514,-3.366C-29.514,-3.366 -27.831,-6.251 -26.929,-7.814C-26.027,-9.377 -25.186,-10.819 -22.481,-17.432C-19.776,-24.044 -17.612,-31.557 -17.612,-31.557L-13.044,-29.093C-13.044,-29.093 -1.923,-22.421 -0.361,-21.579C1.202,-20.738 0.781,-19.295 0,-18.814" style="fill:white;fill-rule:nonzero;"/>
            </g>
            <g transform="matrix(1,0,0,1,530.7837,299.8462)">
                <path d="M0,67.765C-1.737,69.124 -10.495,74.299 -13.518,75.393C-17.068,76.677 -22.732,76.526 -24.016,75.997C-25.3,75.468 -27.49,69.88 -27.717,68.898C-27.943,67.916 -33.003,53.793 -33.003,53.793L-37.912,40.728C-37.912,40.728 -39.725,35.064 -39.649,32.647C-39.574,30.231 -39.498,29.928 -39.498,29.928C-39.498,29.928 -31.04,23.736 -29.303,22.905C-27.566,22.074 -25.375,21.017 -24.167,21.395C-22.959,21.772 -22.883,22.074 -21.146,21.772C-21.146,21.772 -20.013,22.527 -19.485,23.66C-18.956,24.793 -18.503,26.077 -18.503,26.077C-18.503,26.077 -20.089,25.02 -26.735,27.663C-33.381,30.306 -35.722,31.665 -35.42,32.496C-35.118,33.327 -29.529,31.363 -29.529,31.363C-29.529,31.363 -22.052,29.702 -20.769,29.551C-19.485,29.4 -17.899,27.512 -17.899,27.512C-17.899,27.512 -14.274,36.65 -12.31,40.502C-10.347,44.353 -8.232,47.978 -7.25,50.848C-6.268,53.718 -5.135,59.08 -1.964,62.856C1.208,66.632 1.737,66.406 0,67.765M0.506,57.114C-0.86,55.064 -4.003,49.256 -4.482,47.616C-4.96,45.976 -7.83,41.672 -8.786,39.622C-9.743,37.572 -12.271,30.944 -12.817,29.441C-13.364,27.938 -15.755,22.882 -16.985,22.403C-18.215,21.925 -18.489,20.832 -19.65,19.602C-20.812,18.372 -24.091,17.757 -24.091,17.757C-24.091,17.757 -20.47,12.359 -20.402,11.676C-20.333,10.993 -17.6,5.8 -18.762,0.334C-19.924,-5.133 -23.818,-6.226 -27.234,-6.499C-30.651,-6.772 -32.222,-4.449 -32.222,-4.449C-32.564,-7.661 -33.794,-11.282 -35.297,-11.487C-36.8,-11.692 -38.987,-9.096 -38.987,-9.096C-38.987,-9.096 -39.533,-12.58 -42.062,-12.58C-44.59,-12.58 -45.41,-9.027 -45.41,-9.027C-45.41,-9.027 -46.025,-11.419 -47.391,-11.009C-49.585,-10.35 -49.988,-5.748 -50.056,-6.294C-50.124,-6.841 -52.037,-8.891 -56.274,-7.866C-60.51,-6.841 -62.44,-1.8 -62.815,7.319C-63.19,16.438 -53.696,23.237 -53.696,23.237C-51.322,24.986 -44.055,27.581 -43.328,25.682C-42.817,24.349 -44.863,23.257 -46.981,22.438C-49.099,21.618 -51.491,20.319 -55.454,16.493C-59.417,12.667 -59.28,8.294 -58.938,3.716C-58.597,-0.862 -57.094,-5.03 -53.951,-5.577C-50.807,-6.123 -50.534,-3.664 -50.329,-2.434C-50.124,-1.204 -50.124,0.231 -49.373,0.231C-48.621,0.231 -48.689,-0.521 -48.689,-1.34C-48.689,-2.16 -48.758,-5.303 -48.074,-7.9C-47.391,-10.496 -46.366,-8.31 -46.161,-7.695C-45.956,-7.08 -45.751,-4.21 -44.795,-4.21C-43.838,-4.21 -44.248,-4.893 -44.248,-6.123C-44.248,-7.353 -44.385,-10.428 -42.198,-10.77C-40.012,-11.111 -41.173,-6.67 -40.148,-6.397C-39.123,-6.123 -39.465,-5.85 -37.415,-8.378C-35.365,-10.906 -35.297,-8.446 -35.365,-7.285C-35.434,-6.123 -34.614,-1.682 -34.614,-1.682C-34.614,-1.682 -34.887,-0.042 -35.639,2.076C-36.39,4.194 -35.98,7.064 -34.272,7.064C-32.564,7.064 -32.359,4.467 -32.359,4.467C-32.359,4.467 -31.539,-2.57 -27.098,-2.775C-22.657,-2.98 -21.973,2.281 -22.247,5.356C-22.52,8.43 -25.116,12.872 -26.961,15.195C-28.806,17.518 -29.148,18.611 -29.148,18.611C-29.148,18.611 -30.378,19.431 -31.539,19.978C-32.701,20.524 -39.397,25.376 -41.652,27.015C-43.435,28.312 -43.496,28.826 -43.701,31.354C-43.906,33.882 -43.086,37.64 -43.086,37.64L-36.322,56.089C-36.322,56.089 -30.651,72.282 -30.378,73.307C-30.104,74.332 -28.874,75.699 -28.669,77.407C-28.464,79.115 -27.166,79.525 -21.905,79.935C-16.644,80.345 -11.451,78.568 -9.264,77.748C-7.078,76.929 0.438,71.736 2.146,70.916C3.854,70.096 3.239,69.891 4.811,67.978C6.383,66.064 5.289,63.878 5.289,63.878C5.289,63.878 1.873,59.163 0.506,57.114" style="fill:rgb(36,25,22);fill-rule:nonzero;"/>
            </g>
            <g transform="matrix(1,0,0,1,490.2254,302.8109)">
                <path d="M0,-5.74C-0.478,-6.628 -2.118,-5.808 -4.988,-3.28C-7.858,-0.752 -7.038,0.546 -7.038,0.546C-6.15,0.888 -6.491,0.614 -6.15,0C-5.808,-0.615 -4.236,-1.572 -3.006,-2.324C-1.777,-3.075 0.478,-4.852 0,-5.74" style="fill:rgb(36,25,22);fill-rule:nonzero;"/>
            </g>
            <g transform="matrix(1,0,0,1,636.7341,360.1718)">
                <path d="M0,-38.931C-0.781,-38.45 -2.585,-36.106 -3.366,-34.723C-4.148,-33.341 -10.82,-21.139 -11.301,-19.756C-12.406,-16.578 -15.688,-10.018 -16.65,-8.696C-17.612,-7.374 -19.295,-7.794 -20.076,-7.855C-20.858,-7.915 -22.12,-8.696 -22.481,-9.057C-22.841,-9.417 -23.984,-10.62 -23.984,-10.62C-23.984,-10.62 -26.749,-12.243 -29.033,-13.865C-31.317,-15.488 -32.82,-17.893 -32.82,-17.893C-32.82,-17.893 -32.098,-18.013 -31.798,-18.674C-31.497,-19.335 -31.738,-20.117 -31.738,-20.117L-30.656,-21.439C-29.814,-20.658 -24.645,-18.193 -22.962,-17.412C-21.279,-16.63 -19.355,-16.21 -18.934,-17.232C-18.514,-18.253 -19.596,-19.035 -21.339,-19.936C-23.082,-20.838 -26.869,-22.461 -28.612,-22.942C-30.355,-23.423 -29.514,-23.483 -29.514,-23.483C-29.514,-23.483 -27.831,-26.368 -26.929,-27.931C-26.027,-29.494 -25.186,-30.936 -22.481,-37.549C-19.776,-44.161 -17.612,-51.674 -17.612,-51.674L-13.044,-49.21C-13.044,-49.21 -1.923,-42.538 -0.361,-41.696C1.202,-40.855 0.781,-39.412 0,-38.931M-30.325,5.03C-35.6,11.226 -34.763,11.226 -37.609,11.226C-40.456,11.226 -42.047,11.058 -42.047,11.058L-42.884,11.561C-42.884,11.561 -43.051,10.64 -43.637,9.802C-43.637,9.802 -41.293,11.142 -39.87,9.049C-38.446,6.956 -39.367,5.951 -39.367,5.951C-39.367,5.951 -37.609,6.788 -36.688,4.277C-35.767,1.765 -38.781,-0.663 -39.451,-0.998C-40.121,-1.333 -41.963,-2.17 -41.963,-2.17L-39.451,-2.589C-39.451,-2.589 -37.86,-0.998 -36.688,-2.421C-35.516,-3.845 -35.516,-6.189 -35.516,-7.529C-35.516,-8.868 -35.687,-11.098 -37.107,-12.636C-38.112,-13.724 -40.707,-15.064 -41.544,-15.064L-37.107,-17.576C-37.107,-17.576 -33.59,-12.133 -31.414,-10.794C-29.237,-9.454 -24.381,-5.436 -24.381,-5.436C-24.381,-5.436 -25.051,-1.166 -30.325,5.03M-45.411,6.563C-45.411,6.563 -46.952,5.692 -47.286,6.63C-47.621,7.567 -46.751,8.84 -46.349,9.51C-45.947,10.18 -45.277,11.05 -45.277,12.122C-45.277,13.194 -45.344,12.256 -46.751,11.519C-48.157,10.783 -49.229,10.783 -49.966,10.649C-50.703,10.515 -51.841,10.113 -52.042,11.117C-52.243,12.122 -48.961,13.931 -48.224,13.931C-47.487,13.931 -46.818,14.4 -46.818,14.4C-46.818,14.4 -47.153,17.079 -48.559,17.146C-48.559,17.146 -53.114,16.61 -55.659,16.61C-58.205,16.61 -63.162,16.476 -65.305,12.993C-67.449,9.51 -69.324,0.065 -69.257,-1.208C-69.257,-1.208 -61.281,-3.583 -57.133,-6.901C-52.109,-10.92 -49.698,-13.533 -49.631,-14.336L-39.717,-10.518L-39.315,-5.093C-39.315,-5.093 -39.248,-4.155 -40.253,-4.155C-41.258,-4.155 -43.268,-4.624 -44.205,-4.892C-45.143,-5.16 -46.483,-4.825 -45.88,-2.547C-45.277,-0.27 -42.799,0.802 -42.129,1.003C-41.459,1.204 -38.173,2.403 -38.846,3.749C-39.181,4.419 -41.124,2.878 -41.995,2.878C-42.866,2.878 -44.473,2.61 -44.473,3.682C-44.473,4.754 -44.004,5.357 -43,5.357C-41.995,5.357 -40.856,6.63 -41.392,7.768C-41.928,8.907 -45.411,6.563 -45.411,6.563M-72.281,-5.53C-73.739,-7.987 -77.886,-12.44 -78.961,-15.434C-80.035,-18.429 -82.492,-26.798 -83.26,-30.56C-84.028,-34.323 -86.946,-46.147 -87.023,-48.757C-87.023,-48.757 -83.798,-48.911 -81.034,-49.909C-78.27,-50.907 -65.524,-55.13 -65.524,-55.13L-63.067,-52.597C-63.067,-52.597 -61.838,-51.675 -62.453,-46.684C-63.067,-41.694 -63.364,-37.536 -62.453,-33.708C-61.301,-28.871 -58.69,-25.109 -56.464,-21.73C-56.464,-21.73 -55.849,-20.502 -57.078,-19.35C-58.306,-18.199 -64.679,-15.127 -66.368,-14.436C-68.058,-13.745 -69.824,-13.054 -69.363,-12.363C-68.902,-11.672 -61.762,-14.897 -60.072,-15.511C-58.383,-16.125 -55.158,-17.354 -55.082,-19.197C-55.082,-19.197 -53.93,-18.045 -53.546,-17.047C-53.162,-16.049 -52.778,-15.358 -52.778,-15.358C-52.778,-15.358 -57.462,-10.674 -62.069,-8.294C-66.676,-5.914 -69.824,-4.378 -69.824,-4.378C-69.824,-4.378 -70.822,-3.073 -72.281,-5.53M4.347,-41.233C4.347,-42.769 2.274,-44.458 1.353,-45.072C0.431,-45.686 -1.872,-46.761 -7.17,-50.216C-12.468,-53.671 -16.077,-54.977 -16.077,-54.977C-16.077,-54.977 -16.691,-55.898 -18.918,-56.128C-21.144,-56.359 -21.144,-53.671 -21.144,-53.671C-21.144,-53.671 -21.912,-51.598 -22.603,-48.681C-23.294,-45.763 -27.44,-36.396 -28.131,-34.169C-28.822,-31.942 -34.12,-21.5 -35.579,-21.5C-37.038,-21.5 -38.574,-20.963 -39.879,-20.425C-41.184,-19.888 -47.634,-16.356 -47.634,-16.356L-48.862,-16.893C-48.862,-17.968 -49.86,-18.199 -49.86,-18.199L-51.703,-21.116C-51.703,-21.116 -55.158,-25.953 -57.769,-31.328C-60.379,-36.703 -58.921,-40.312 -58.69,-44.995C-58.46,-49.679 -58.69,-51.445 -58.997,-52.827C-59.305,-54.209 -60.379,-55.361 -62.913,-57.587C-65.447,-59.814 -67.443,-58.662 -67.443,-58.662C-67.443,-58.662 -75.736,-56.128 -82.646,-53.518C-89.556,-50.907 -90.094,-51.522 -90.094,-51.522C-91.399,-51.598 -90.938,-49.448 -90.401,-45.917C-89.864,-42.385 -88.097,-35.321 -88.097,-35.321C-88.097,-35.321 -85.333,-23.113 -83.567,-17.431C-81.801,-11.749 -78.193,-6.528 -76.35,-4.762C-74.507,-2.996 -74.277,-1.46 -73.279,-0.923C-72.281,-0.385 -71.82,-0.462 -71.82,-0.462C-72.127,2.532 -71.282,8.521 -69.9,12.437C-68.518,16.353 -65.063,19.194 -60.456,20.039C-55.849,20.883 -48.862,20.499 -47.25,20.115C-45.638,19.731 -44.716,14.817 -44.716,14.817C-43.718,14.741 -42.95,13.359 -42.95,13.359C-42.566,14.203 -41.798,14.433 -40.416,14.433C-39.034,14.433 -36.424,14.126 -34.044,13.666C-31.663,13.205 -29.437,10.287 -27.978,8.061C-26.519,5.834 -24.983,2.609 -23.755,-0.385C-22.526,-3.38 -22.757,-4.839 -22.757,-4.839C-21.759,-4.378 -19.225,-3.917 -17.612,-4.148C-16,-4.378 -14.618,-5.453 -14.004,-6.144C-13.389,-6.835 -12.238,-8.601 -11.086,-10.674C-9.934,-12.747 -7.324,-18.966 -6.863,-20.272C-6.402,-21.577 -2.333,-28.103 -1.335,-30.637C-0.337,-33.171 1.353,-34.553 2.044,-35.398C2.735,-36.242 4.117,-37.24 4.347,-38.008C4.577,-38.776 4.347,-39.697 4.347,-41.233" style="fill:rgb(36,25,22);fill-rule:nonzero;"/>
            </g>
            <g transform="matrix(1,0,0,1,530.7837,329.7752)">
                <path d="M0,37.836C-1.737,39.195 -10.495,44.37 -13.518,45.464C-17.068,46.748 -22.732,46.597 -24.016,46.068C-25.3,45.539 -27.49,39.951 -27.717,38.969C-27.943,37.987 -33.003,23.864 -33.003,23.864L-37.912,10.799C-37.912,10.799 -39.725,5.135 -39.649,2.718C-39.574,0.302 -39.498,-0.001 -39.498,-0.001C-39.498,-0.001 -31.04,-6.193 -29.303,-7.024C-27.566,-7.855 -25.375,-8.912 -24.167,-8.534C-22.959,-8.157 -22.883,-7.855 -21.146,-8.157C-21.146,-8.157 -20.013,-7.402 -19.485,-6.269C-18.956,-5.136 -18.503,-3.852 -18.503,-3.852C-18.503,-3.852 -20.089,-4.909 -26.735,-2.266C-33.381,0.377 -35.722,1.736 -35.42,2.567C-35.118,3.398 -29.529,1.434 -29.529,1.434C-29.529,1.434 -22.052,-0.227 -20.769,-0.378C-19.485,-0.529 -17.899,-2.417 -17.899,-2.417C-17.899,-2.417 -14.274,6.721 -12.31,10.573C-10.347,14.424 -8.232,18.049 -7.25,20.919C-6.268,23.789 -5.135,29.151 -1.964,32.927C1.208,36.703 1.737,36.477 0,37.836" style="fill:white;fill-rule:nonzero;"/>
            </g>
            <g transform="matrix(1,0,0,1,564.4536,307.4981)">
                <path d="M0,47.144C-1.459,44.687 -5.605,40.234 -6.68,37.239C-7.755,34.245 -10.212,25.876 -10.98,22.113C-11.748,18.351 -14.665,6.527 -14.742,3.916C-14.742,3.916 -11.517,3.763 -8.753,2.764C-5.989,1.766 6.757,-2.457 6.757,-2.457L9.214,0.077C9.214,0.077 10.442,0.998 9.828,5.989C9.214,10.98 8.917,15.138 9.828,18.965C10.98,23.803 13.59,27.565 15.817,30.943C15.817,30.943 16.431,32.172 15.203,33.323C13.974,34.475 7.601,37.546 5.912,38.237C4.223,38.928 2.457,39.619 2.918,40.31C3.378,41.001 10.519,37.777 12.208,37.162C13.897,36.548 17.122,35.32 17.199,33.477C17.199,33.477 18.351,34.629 18.735,35.627C19.119,36.625 19.502,37.316 19.502,37.316C19.502,37.316 14.819,42 10.212,44.38C5.605,46.76 2.457,48.296 2.457,48.296C2.457,48.296 1.459,49.601 0,47.144" style="fill:white;fill-rule:nonzero;"/>
            </g>
            <g transform="matrix(1,0,0,1,636.7341,340.0548)">
                <path d="M0,-18.814C-0.781,-18.333 -2.585,-15.989 -3.366,-14.606C-4.148,-13.224 -10.82,-1.022 -11.301,0.361C-12.406,3.539 -15.688,10.099 -16.65,11.421C-17.612,12.743 -19.295,12.323 -20.076,12.262C-20.858,12.202 -22.12,11.421 -22.481,11.06C-22.841,10.7 -23.984,9.497 -23.984,9.497C-23.984,9.497 -26.749,7.874 -29.033,6.252C-31.317,4.629 -32.82,2.224 -32.82,2.224C-32.82,2.224 -32.098,2.104 -31.798,1.443C-31.497,0.782 -31.738,-0 -31.738,-0L-30.656,-1.322C-29.814,-0.541 -24.645,1.924 -22.962,2.705C-21.279,3.487 -19.355,3.907 -18.934,2.885C-18.514,1.864 -19.596,1.082 -21.339,0.181C-23.082,-0.721 -26.869,-2.344 -28.612,-2.825C-30.355,-3.306 -29.514,-3.366 -29.514,-3.366C-29.514,-3.366 -27.831,-6.251 -26.929,-7.814C-26.027,-9.377 -25.186,-10.819 -22.481,-17.432C-19.776,-24.044 -17.612,-31.557 -17.612,-31.557L-13.044,-29.093C-13.044,-29.093 -1.923,-22.421 -0.361,-21.579C1.202,-20.738 0.781,-19.295 0,-18.814" style="fill:white;fill-rule:nonzero;"/>
            </g>
            <g transform="matrix(1,0,0,1,190.4848,378.8979)">
                <path d="M0,-84.008C-0.438,-80.503 -2.957,-63.307 -3.395,-60.679C-3.833,-58.05 -5.695,-45.783 -6.134,-40.525C-6.572,-35.268 -7.448,-25.082 -7.448,-19.167C-7.448,-13.253 -7.448,-13.582 -7.338,-10.734C-7.229,-7.886 -6.462,-3.176 -6.462,-3.176C-6.462,-3.176 -6.243,-2.848 -7.996,-1.533C-9.748,-0.219 -16.977,3.176 -19.277,4.052C-21.577,4.929 -22.891,5.038 -22.891,5.038C-22.891,5.038 -23.987,5.695 -24.425,3.067C-24.863,0.438 -26.287,-15.663 -25.739,-26.506C-25.191,-37.349 -24.972,-59.036 -24.315,-63.745C-23.658,-68.455 -23.439,-86.089 -22.563,-87.622C-22.563,-87.622 -11.391,-88.937 -9.31,-88.937C-7.229,-88.937 -0.876,-89.703 -0.876,-89.703C-0.876,-89.703 0.438,-87.513 0,-84.008" style="fill:white;fill-rule:nonzero;"/>
            </g>
            <g transform="matrix(1,0,0,1,251.6014,368.7122)">
                <path d="M0,-57.174L-0.438,-40.964C-0.438,-40.964 -0.876,-21.906 -0.876,-18.949C-0.876,-15.991 -1.314,-0.439 -1.314,1.423C-1.314,3.285 -0.876,6.571 -0.876,6.571C-0.876,6.571 -5.586,5.914 -11.829,7.776C-18.072,9.638 -20.482,10.624 -20.482,10.624C-20.482,10.624 -24.425,3.943 -26.725,-3.943C-29.025,-11.829 -32.53,-23.33 -32.968,-24.206C-33.406,-25.082 -34.392,-27.93 -36.254,-24.973L-35.925,-12.048C-35.925,-12.048 -35.925,-1.205 -36.363,4.271C-36.801,9.748 -36.144,13.252 -36.144,13.252L-46.33,13.362C-46.33,13.362 -47.426,3.395 -47.426,-9.091C-47.426,-21.577 -47.535,-37.678 -46.002,-46.55C-44.468,-55.422 -44.03,-61.665 -44.03,-64.731C-44.03,-67.798 -42.606,-70.536 -42.606,-70.536L-25.739,-70.317C-25.739,-70.317 -26.177,-63.417 -25.63,-56.626C-25.082,-49.836 -24.863,-41.95 -24.096,-37.568C-23.329,-33.187 -22.015,-23.549 -18.948,-23.22C-15.882,-22.892 -16.758,-33.954 -16.758,-33.954C-16.758,-33.954 -14.677,-54.545 -14.567,-56.845C-14.458,-59.145 -13.253,-68.236 -14.02,-69.66C-14.02,-69.66 -3.833,-70.317 -1.533,-67.141C0.767,-63.965 0,-57.174 0,-57.174" style="fill:white;fill-rule:nonzero;"/>
            </g>
            <g transform="matrix(1,0,0,1,304.4658,345.9981)">
                <path d="M0,-20.673C-0.183,-17.197 -0.549,-16.557 -2.927,-16.191C-5.305,-15.825 -10.702,-17.654 -10.702,-17.654C-10.702,-17.654 -9.795,-29.455 -14.178,-29.729C-17.105,-29.912 -18.66,-26.71 -18.66,-26.71C-19.118,-25.338 -21.405,-20.856 -21.953,-19.575C-22.502,-18.295 -24.423,-5.397 -24.332,-0.641C-24.24,4.116 -21.039,8.141 -18.02,8.049C-15.001,7.958 -12.989,1.097 -12.44,-0.549C-11.891,-2.196 -10.702,-1.189 -10.702,-1.189C-10.702,-1.189 -5.946,0.915 -4.025,1.372C-2.104,1.829 -2.287,2.652 -2.287,2.652C-2.287,2.652 -2.012,3.842 -4.391,9.147C-6.769,14.452 -12.715,24.606 -16.831,27.624C-20.947,30.643 -26.801,28.905 -30.552,27.259C-34.302,25.612 -36.68,17.471 -37.321,12.349C-37.961,7.226 -36.68,-8.782 -35.766,-14.087C-34.851,-19.392 -31.467,-34.028 -27.899,-40.523C-24.332,-47.017 -20.947,-51.316 -14.453,-51.316C-7.958,-51.316 -3.567,-47.383 -2.104,-41.803C-0.64,-36.223 0.183,-24.149 0,-20.673" style="fill:white;fill-rule:nonzero;"/>
            </g>
            <g transform="matrix(1,0,0,1,350.5149,308.0766)">
                <path d="M0,60.114C-0.888,65.087 -2.131,68.905 -2.22,69.171C-2.309,69.437 -1.776,70.237 -4.706,70.503C-7.636,70.769 -21.488,71.835 -24.063,71.924C-26.638,72.012 -30.368,71.746 -30.368,71.746L-31.433,71.746C-31.433,71.746 -30.901,62.955 -30.812,61.002C-30.723,59.048 -30.368,42.533 -29.835,38.004C-29.302,33.476 -28.237,12.609 -28.237,9.59C-28.237,6.571 -26.905,-11.898 -26.461,-11.721C-26.461,-11.721 -22.021,-11.366 -18.292,-10.833C-14.562,-10.3 -11.898,-9.767 -10.478,-9.146C-10.478,-9.146 -11.454,-3.108 -12.165,0C-12.875,3.108 -14.651,9.146 -15.539,14.918C-16.427,20.689 -17.493,29.657 -17.67,34.364C-17.848,39.07 -18.203,47.772 -18.203,47.772C-18.203,47.772 -19.624,53.366 -14.918,51.945C-10.211,50.524 -2.753,49.015 -1.066,48.748C0.622,48.482 2.575,48.482 2.575,48.482C2.575,48.482 0.888,55.141 0,60.114" style="fill:white;fill-rule:nonzero;"/>
            </g>
            <g transform="matrix(1,0,0,1,401.5331,361.9404)">
                <path d="M0,-51.824C0.218,-49.642 -1.309,-34.367 -1.527,-29.676C-1.678,-26.448 -2.4,-14.074 -7.092,-1.855C-12.241,11.557 -20.075,13.42 -24.767,13.202C-29.458,12.984 -34.04,3.055 -35.35,-2.509C-36.659,-8.073 -36.986,-14.074 -36.986,-17.456C-36.986,-20.839 -36.55,-30.876 -36.55,-33.713C-36.55,-36.549 -34.695,-64.48 -34.695,-64.48C-33.822,-64.044 -31.64,-64.262 -29.24,-64.262C-26.839,-64.262 -22.257,-62.844 -22.257,-62.844C-22.257,-62.844 -23.348,-56.297 -23.785,-54.988C-24.221,-53.679 -26.839,-39.386 -27.276,-33.822C-27.712,-28.258 -27.494,-19.966 -25.312,-17.347C-23.13,-14.729 -21.275,-12.001 -18.438,-16.911C-15.602,-21.821 -15.056,-28.585 -14.074,-34.586C-13.092,-40.586 -13.42,-45.387 -12.983,-52.042C-12.547,-58.698 -12.22,-65.244 -12.22,-65.244C-12.22,-65.244 -9.601,-64.916 -7.965,-64.916C-6.328,-64.916 -1.091,-64.48 -1.091,-64.48L-0.327,-61.862C0.436,-59.243 -0.218,-54.006 0,-51.824" style="fill:white;fill-rule:nonzero;"/>
            </g>
            <g transform="matrix(1,0,0,1,453.1859,316.7517)">
                <path d="M0,40.107C-1.648,50.656 -7.033,54.392 -9.34,56.26C-11.648,58.128 -17.577,62.16 -21.977,61.095C-28.79,59.447 -30.328,56.81 -33.405,53.733C-36.482,50.656 -36.482,47.579 -37.361,44.612C-38.24,41.645 -37.141,34.613 -37.141,34.613L-29.559,33.953C-29.559,35.162 -27.142,41.755 -25.164,45.162C-23.186,48.568 -22.087,49.557 -19.45,49.337C-16.813,49.118 -14.505,44.393 -14.285,39.558C-14.065,34.723 -14.725,29.338 -23.845,24.943C-32.966,20.547 -34.504,13.185 -34.944,10.877C-35.383,8.57 -36.043,-5.276 -32.306,-12.308C-28.57,-19.341 -22.966,-20.11 -16.483,-20.55C-10,-20.989 -6.923,-18.352 -4.505,-15.605C-2.088,-12.858 -0.769,-5.825 -0.549,-1.869C-0.33,2.087 -0.549,2.306 -0.549,2.306C-0.549,2.306 -5.494,1.317 -10.109,1.977C-10.109,1.977 -10.769,-0.331 -11.208,-2.529C-11.648,-4.726 -12.857,-7.693 -15.164,-7.803C-17.472,-7.913 -19.779,-6.155 -20.549,-1.869C-21.318,2.416 -17.801,11.097 -15.604,13.625C-13.406,16.152 -6.154,22.855 -4.176,24.503C-2.198,26.151 1.648,29.558 0,40.107M2.13,26.344C-0.515,22.556 -3.517,19.196 -7.735,16.265C-11.952,13.334 -14.597,8.259 -15.097,6.829C-15.598,5.399 -17.213,0.206 -16.885,-1.32C-16.384,-3.643 -15.741,-3.894 -15.741,-3.894C-15.741,-3.894 -14.526,-0.212 -14.025,2.147C-13.525,4.506 -13.096,5.578 -10.379,5.542C-5.943,5.484 0.057,6.114 0.057,6.114C0.057,6.114 3.203,5.828 3.346,3.183C3.489,0.538 3.56,-5.824 1.916,-10.542C0.272,-15.26 -1.801,-19.692 -6.519,-22.265C-11.237,-24.839 -19.601,-24.553 -21.96,-24.124C-24.319,-23.695 -28.894,-22.98 -33.898,-17.047C-38.902,-11.114 -39.045,5.042 -39.045,5.042C-39.045,5.042 -39.093,14.479 -34.827,20.268C-30.824,25.701 -26.035,27.846 -26.035,27.846C-26.035,27.846 -18.743,31.563 -18.386,35.852C-18.028,40.141 -18.529,44.644 -20.387,45.645C-20.387,45.645 -23.175,41.928 -24.105,38.783C-25.034,35.637 -25.843,32.391 -26.035,31.777C-26.392,30.633 -26.464,30.062 -28.465,30.062C-28.465,30.062 -32.897,30.562 -35.113,30.776C-37.329,30.991 -39.331,30.348 -40.689,32.635C-42.047,34.923 -41.261,42.571 -40.618,46.861C-39.974,51.15 -35.399,57.011 -33.326,59.442C-31.253,61.872 -24.748,64.303 -21.674,64.517C-18.6,64.732 -15.312,64.946 -9.164,60.729C-3.017,56.511 1.058,51.793 2.917,45.288C4.775,38.783 4.775,30.133 2.13,26.344" style="fill:rgb(36,25,22);fill-rule:nonzero;"/>
            </g>
            <g transform="matrix(1,0,0,1,671.4929,359.5352)">
                <path d="M0,-46.629C0,-46.629 -2.787,-47.186 -3.344,-44.493C-3.901,-41.799 -4.737,-37.433 -4.83,-36.226C-4.923,-35.018 -6.038,-32.139 -3.158,-32.046C-0.279,-31.953 6.037,-32.232 6.781,-32.232C7.524,-32.232 11.053,-31.21 11.611,-31.117C12.168,-31.024 12.168,-31.117 12.168,-29.445C12.168,-27.773 12.354,-19.507 12.354,-19.507C12.354,-19.507 7.988,-20.157 5.016,-20.435C2.043,-20.714 -3.808,-20.9 -5.294,-20.528C-6.781,-20.157 -7.524,-20.157 -7.709,-17.742C-7.895,-15.327 -8.917,-8.082 -8.453,-5.852C-7.988,-3.623 -4.737,-3.716 -4.737,-3.716L6.595,-3.809L9.66,-4.273C9.66,-4.273 9.939,-4.181 9.939,-1.022L9.939,10.124C9.939,10.124 7.802,9.659 5.202,9.474C2.601,9.288 -3.437,8.359 -6.595,8.452C-9.753,8.545 -12.075,8.73 -14.119,8.916C-16.162,9.102 -18.856,8.823 -18.856,8.823C-18.856,8.823 -19.506,4.179 -19.041,-1.208C-18.577,-6.596 -17.927,-17.742 -18.02,-19.414C-18.113,-21.086 -17.741,-36.597 -17.741,-37.805C-17.741,-39.012 -16.626,-56.103 -16.626,-56.103C-16.626,-56.103 2.508,-56.103 4.644,-56.01C6.781,-55.917 10.589,-55.917 10.589,-55.917C10.589,-55.917 11.611,-56.01 11.703,-54.524C11.796,-53.038 12.539,-48.951 12.818,-48.394C13.097,-47.836 13.654,-46.536 13.654,-46.536L0,-46.629ZM17.277,-44.678C17.277,-44.678 16.626,-48.022 16.069,-49.694C15.512,-51.366 15.233,-55.732 14.769,-57.032C14.304,-58.333 13.654,-59.633 12.725,-59.54C11.796,-59.447 9.01,-59.54 8.267,-59.447C7.524,-59.354 -16.626,-59.726 -16.626,-59.726C-16.626,-59.726 -18.206,-60.097 -19.32,-58.983C-20.668,-57.635 -20.62,-56.289 -20.62,-55.267C-20.62,-54.246 -20.899,-46.815 -20.992,-44.771C-21.085,-42.728 -22.107,-18.113 -22.107,-18.113C-22.107,-18.113 -22.385,5.944 -22.385,6.594C-22.385,7.244 -22.014,10.124 -20.435,11.796C-18.856,13.468 -17.277,12.446 -16.162,12.353C-15.047,12.26 -8.731,11.703 -4.273,12.167C0.186,12.632 7.988,12.91 10.403,12.91C12.818,12.91 12.725,10.867 12.725,10.867L12.725,8.823L12.632,-5.76C12.632,-5.76 12.632,-6.967 11.982,-7.339C11.332,-7.71 10.403,-7.803 9.474,-7.524C8.545,-7.246 6.037,-7.432 3.622,-7.524C1.207,-7.617 -4.551,-7.432 -4.551,-7.432L-4.551,-10.868C-4.551,-11.983 -3.994,-16.906 -3.994,-16.906C-3.994,-16.906 0.65,-16.999 2.136,-16.999C3.622,-16.999 11.796,-15.884 13.933,-15.977C16.069,-16.07 15.883,-18.206 15.883,-18.206C15.883,-18.206 15.976,-24.429 15.976,-26.009C15.976,-27.588 16.069,-30.281 16.069,-30.281C16.534,-32.975 15.883,-33.439 15.512,-33.904C15.14,-34.368 11.146,-35.204 9.381,-35.483C7.617,-35.761 -1.208,-35.669 -1.208,-35.669C-1.208,-35.669 -1.022,-36.69 -0.836,-37.619C-0.65,-38.548 0.279,-42.728 0.279,-42.728L13.84,-42.821C13.84,-42.821 15.233,-42.635 16.348,-43.006C17.462,-43.378 17.277,-44.678 17.277,-44.678" style="fill:rgb(36,25,22);fill-rule:nonzero;"/>
            </g>
            <g transform="matrix(1,0,0,1,503.1931,266.4648)">
                <path d="M0,-1.169C-1.692,-0.081 -2.78,-1.008 -3.102,-1.169C-3.76,-1.498 -3.425,-2.539 -2.377,-3.224C-1.33,-3.909 -1.209,-4.392 -0.201,-3.909C0.806,-3.425 1.692,-2.257 0,-1.169M-14.021,5.197C-14.021,5.197 -13.014,3.988 -11.483,5.278C-9.952,6.567 -11.04,8.582 -11.523,9.105C-12.007,9.629 -14.384,10.959 -15.593,9.952C-16.802,8.944 -15.311,6.325 -15.311,6.325C-14.223,4.673 -14.021,5.197 -14.021,5.197M1.894,-4.312C0.806,-4.513 -0.242,-5.158 -0.242,-5.158C-0.403,-5.682 -0.363,-6.971 -1.773,-7.616C-3.183,-8.26 -7.454,-11.806 -8.622,-12.692C-9.791,-13.579 -10.315,-13.901 -12.571,-13.74C-14.827,-13.579 -18.475,-10.664 -19.828,-9.13C-21.182,-7.596 -22.626,-6.874 -23.528,-6.693C-24.43,-6.513 -26.235,-5.61 -26.596,-4.798C-26.596,-4.798 -24.417,-3.143 -20.388,-0.242C-16.358,2.659 -15.754,4.029 -15.754,4.029C-15.754,4.029 -16.922,4.955 -17.93,7.615C-18.937,10.274 -17.567,12.409 -14.505,12.57C-11.443,12.732 -9.307,10.153 -8.824,7.292C-8.34,4.432 -10.959,2.941 -11.403,2.86C-11.846,2.78 -13.054,1.329 -13.901,0.362C-14.747,-0.605 -17.084,-2.619 -17.084,-2.619C-17.084,-2.619 -15.391,-3.345 -14.263,-5.118C-12.908,-7.247 -10.758,-9.388 -10.113,-9.751C-9.469,-10.114 -9.146,-8.663 -8.824,-8.341C-8.501,-8.019 -5.601,-5.601 -4.956,-5.238C-4.311,-4.876 -4.029,-4.392 -4.513,-4.151C-4.996,-3.909 -5.681,-3.022 -5.923,-2.297C-6.165,-1.572 -6.487,1.047 -3.344,1.974C-0.201,2.9 1.652,1.369 2.74,-0.484C3.828,-2.337 2.982,-4.11 1.894,-4.312" style="fill:rgb(36,25,22);fill-rule:nonzero;"/>
            </g>
            <g transform="matrix(1,0,0,1,627.8586,395.5173)">
                <path d="M0,-1.169C-1.692,-0.081 -2.78,-1.008 -3.102,-1.169C-3.76,-1.498 -3.425,-2.539 -2.377,-3.224C-1.33,-3.909 -1.209,-4.392 -0.201,-3.909C0.806,-3.425 1.692,-2.257 0,-1.169M-14.021,5.197C-14.021,5.197 -13.014,3.988 -11.483,5.278C-9.952,6.567 -11.04,8.582 -11.523,9.105C-12.007,9.629 -14.384,10.959 -15.593,9.952C-16.802,8.944 -15.311,6.325 -15.311,6.325C-14.223,4.673 -14.021,5.197 -14.021,5.197M1.894,-4.312C0.806,-4.513 -0.242,-5.158 -0.242,-5.158C-0.403,-5.682 -0.363,-6.971 -1.773,-7.616C-3.183,-8.26 -7.454,-11.806 -8.622,-12.692C-9.791,-13.579 -10.315,-13.901 -12.571,-13.74C-14.827,-13.579 -18.475,-10.664 -19.828,-9.13C-21.182,-7.596 -22.626,-6.874 -23.528,-6.693C-24.43,-6.513 -26.235,-5.61 -26.596,-4.798C-26.596,-4.798 -24.417,-3.143 -20.388,-0.242C-16.358,2.659 -15.754,4.029 -15.754,4.029C-15.754,4.029 -16.922,4.955 -17.93,7.615C-18.937,10.274 -17.567,12.409 -14.505,12.57C-11.443,12.732 -9.307,10.153 -8.824,7.292C-8.34,4.432 -10.959,2.941 -11.403,2.86C-11.846,2.78 -13.055,1.329 -13.901,0.362C-14.747,-0.605 -17.084,-2.619 -17.084,-2.619C-17.084,-2.619 -15.391,-3.345 -14.263,-5.118C-12.908,-7.247 -10.758,-9.388 -10.113,-9.751C-9.469,-10.114 -9.146,-8.663 -8.824,-8.341C-8.502,-8.019 -5.601,-5.601 -4.956,-5.238C-4.311,-4.876 -4.029,-4.392 -4.513,-4.151C-4.996,-3.909 -5.681,-3.022 -5.923,-2.297C-6.165,-1.572 -6.487,1.047 -3.344,1.974C-0.201,2.9 1.652,1.369 2.74,-0.484C3.828,-2.337 2.982,-4.11 1.894,-4.312" style="fill:rgb(36,25,22);fill-rule:nonzero;"/>
            </g>
            <g transform="matrix(1,0,0,1,575.5536,404.1236)">
                <path d="M0,-12.608C-2.104,-11.065 -4.386,-7.948 -6.03,-5.207C-7.675,-2.466 -8.223,1.371 -6.784,1.44C-5.345,1.508 -4.18,-1.507 -3.358,-3.014C-2.535,-4.522 1.165,-9.798 2.124,-10.415C3.084,-11.032 3.769,-11.032 3.769,-12.06C3.769,-13.088 2.056,-14.116 0,-12.608" style="fill:rgb(36,25,22);fill-rule:nonzero;"/>
            </g>
            <g transform="matrix(1,0,0,1,589.4645,398.5733)">
                <path d="M0,-9.045C-0.822,-7.88 0,-6.715 1.028,-5.619C2.056,-4.522 3.632,-1.439 3.838,-0.822C4.043,-0.205 4.591,0.343 5.414,0.069C6.236,-0.205 5.688,-2.946 4.66,-5.07C3.632,-7.195 1.645,-9.114 1.028,-9.251C0.411,-9.388 0,-9.045 0,-9.045" style="fill:rgb(36,25,22);fill-rule:nonzero;"/>
            </g>
            <g transform="matrix(-0.872792,-0.488092,-0.488092,0.872792,372.041346,150.189467)">
                <path d="M-0.42,-2.951C1.905,-3.317 1.295,-1.008 1.295,-1.008C1.24,0.173 0.524,1.59 -0.42,1.517C-1.363,1.443 -2.125,0.639 -2.61,-0.389C-3.095,-1.418 -2.745,-2.586 -0.42,-2.951" style="fill:white;fill-rule:nonzero;"/>
            </g>
            <g transform="matrix(0.872792,0.488092,0.488092,-0.872792,439.755379,273.100357)">
                <path d="M1.412,-0.459C2.355,-0.386 3.117,0.419 3.602,1.447C4.086,2.476 3.737,3.643 1.412,4.009C-0.914,4.375 -0.303,2.065 -0.303,2.065C-0.248,0.885 0.468,-0.532 1.412,-0.459" style="fill:white;fill-rule:nonzero;"/>
            </g>
            <g transform="matrix(1,0,0,1,571.0195,190.0122)">
                <path d="M0,40.342C0,40.342 -1.324,40.546 -2.445,40.546C-3.566,40.546 -11.614,40.749 -13.04,40.749C-14.466,40.749 -19.763,41.157 -22.106,41.259C-24.45,41.361 -23.736,39.629 -23.736,34.841C-23.736,30.053 -23.023,27.812 -22.718,26.08C-22.412,24.348 -21.19,24.755 -19.661,24.755C-18.133,24.755 -12.021,24.959 -8.761,24.959C-5.501,24.959 -3.362,25.672 -3.362,25.672L-3.26,24.959C-3.26,24.959 -3.26,23.431 -3.158,21.496C-3.056,19.56 -3.362,13.651 -3.362,13.651L-10.697,13.957C-10.697,13.957 -19.152,14.059 -21.393,14.466C-23.635,14.874 -23.736,13.651 -23.736,12.633C-23.736,11.614 -23.533,8.66 -23.533,7.233C-23.533,5.807 -22.82,1.121 -22.514,-2.037C-22.208,-5.195 -20.578,-4.482 -20.578,-4.482C-20.578,-4.482 -17.115,-4.89 -13.447,-4.686C-9.78,-4.482 -2.139,-4.278 -2.139,-4.278C-2.139,-4.278 -2.343,-6.723 -2.445,-7.844C-2.547,-8.964 -2.751,-14.873 -2.751,-14.873L-7.539,-14.567C-7.539,-14.567 -15.994,-14.466 -20.782,-14.16C-25.57,-13.854 -36.369,-12.021 -36.369,-12.021L-36.674,-5.806C-36.674,-5.806 -36.878,12.633 -36.878,15.383C-36.878,18.134 -36.98,37.184 -36.98,39.323C-36.98,41.463 -37.591,52.465 -37.591,52.465L-35.452,52.465C-35.452,52.465 -29.543,52.77 -25.978,52.974C-22.412,53.178 -11.715,53.702 -11.715,53.702C-5.399,54.211 -6.112,55.012 -4.584,55.114C-3.056,55.215 1.019,55.114 1.019,55.114L1.222,52.465C1.222,52.465 0.713,42.991 0.611,41.361C0.509,39.731 0,40.342 0,40.342" style="fill:white;fill-rule:nonzero;"/>
            </g>
            <g transform="matrix(1,0,0,1,453.1859,317.8157)">
                <path d="M0,39.043C1.648,28.494 -2.198,25.087 -4.176,23.439C-6.154,21.791 -13.406,15.088 -15.604,12.561C-17.801,10.033 -21.318,1.352 -20.549,-2.933C-19.779,-7.219 -17.472,-8.977 -15.164,-8.867C-12.857,-8.757 -11.648,-5.79 -11.208,-3.593C-10.769,-1.395 -10.109,0.913 -10.109,0.913C-5.494,0.253 -0.549,1.242 -0.549,1.242C-0.549,1.242 -0.33,1.023 -0.549,-2.933C-0.769,-6.889 -2.088,-13.922 -4.505,-16.669C-6.923,-19.416 -10,-22.053 -16.483,-21.614C-22.966,-21.174 -28.57,-20.405 -32.306,-13.372C-36.043,-6.34 -35.383,7.506 -34.944,9.813C-34.504,12.121 -32.966,19.483 -23.845,23.879C-14.725,28.274 -14.065,33.659 -14.285,38.494C-14.505,43.329 -16.813,48.054 -19.45,48.273C-22.087,48.493 -23.186,47.504 -25.164,44.098C-27.142,40.691 -29.559,34.098 -29.559,32.889L-37.141,33.549C-37.141,33.549 -38.24,40.581 -37.361,43.548C-36.482,46.515 -36.482,49.592 -33.405,52.669C-30.328,55.746 -28.79,58.383 -21.977,60.031C-17.577,61.096 -11.648,57.064 -9.34,55.196C-7.033,53.328 -1.648,49.592 0,39.043" style="fill:white;fill-rule:nonzero;"/>
            </g>
            <g transform="matrix(1,0,0,1,666.1984,334.084)">
                <path d="M0,4.923C1.486,4.551 7.338,4.737 10.31,5.016C13.283,5.295 17.648,5.945 17.648,5.945C17.648,5.945 17.462,-2.322 17.462,-3.994C17.462,-5.666 17.462,-5.573 16.905,-5.666C16.348,-5.759 12.818,-6.781 12.075,-6.781C11.332,-6.781 5.016,-6.502 2.136,-6.595C-0.743,-6.688 0.372,-9.567 0.464,-10.775C0.557,-11.982 1.393,-16.348 1.951,-19.041C2.508,-21.735 5.294,-21.178 5.294,-21.178L18.949,-21.085C18.949,-21.085 18.391,-22.385 18.113,-22.943C17.834,-23.5 17.091,-27.587 16.998,-29.073C16.905,-30.559 15.883,-30.466 15.883,-30.466C15.883,-30.466 12.075,-30.466 9.939,-30.559C7.802,-30.652 -11.332,-30.652 -11.332,-30.652C-11.332,-30.652 -12.447,-13.561 -12.447,-12.354C-12.447,-11.146 -12.818,4.366 -12.725,6.038C-12.632,7.71 -13.283,18.856 -13.747,24.243C-14.211,29.63 -13.561,34.275 -13.561,34.275C-13.561,34.275 -10.868,34.553 -8.824,34.368C-6.781,34.182 -4.458,33.996 -1.3,33.903C1.858,33.81 7.895,34.739 10.496,34.925C13.097,35.111 15.233,35.575 15.233,35.575L15.233,24.429C15.233,21.271 14.954,21.178 14.954,21.178L11.889,21.642L0.557,21.735C0.557,21.735 -2.694,21.828 -3.158,19.599C-3.622,17.37 -2.601,10.125 -2.415,7.71C-2.229,5.295 -1.486,5.295 0,4.923" style="fill:white;fill-rule:nonzero;"/>
            </g>
            <g transform="matrix(1,0,0,1,491.71,276.1344)">
                <path d="M0,-4.392C-1.531,-5.681 -2.538,-4.473 -2.538,-4.473C-2.538,-4.473 -2.74,-4.996 -3.828,-3.344C-3.828,-3.344 -5.319,-0.725 -4.11,0.282C-2.901,1.289 -0.524,-0.04 -0.04,-0.564C0.443,-1.088 1.531,-3.103 0,-4.392" style="fill:white;fill-rule:nonzero;"/>
            </g>
            <g transform="matrix(0.686646,0.726992,0.726992,-0.686646,499.962809,263.457511)">
                <path d="M1.424,-1.169C1.762,-1.046 3.183,-0.891 3.554,1.086C3.926,3.064 2.468,3.221 1.424,2.821C0.382,2.421 0.65,2.001 0.428,0.769C0.207,-0.463 0.733,-1.422 1.424,-1.169" style="fill:white;fill-rule:nonzero;"/>
            </g>
            <g transform="matrix(1,0,0,1,616.3755,405.187)">
                <path d="M0,-4.392C-1.531,-5.681 -2.538,-4.473 -2.538,-4.473C-2.538,-4.473 -2.74,-4.996 -3.828,-3.344C-3.828,-3.344 -5.318,-0.725 -4.11,0.282C-2.901,1.289 -0.524,-0.041 -0.04,-0.564C0.443,-1.088 1.531,-3.103 0,-4.392" style="fill:white;fill-rule:nonzero;"/>
            </g>
            <g transform="matrix(-0.686646,-0.726992,-0.726992,0.686646,625.037536,393.82335)">
                <path d="M-0.189,-3.425C0.855,-3.026 0.586,-2.605 0.808,-1.373C1.028,-0.141 0.502,0.818 -0.189,0.565C-0.527,0.442 -1.948,0.287 -2.319,-1.69C-2.69,-3.668 -1.231,-3.826 -0.189,-3.425" style="fill:white;fill-rule:nonzero;"/>
            </g>
        </g>
    </g>
</svg>
